<svg xmlns="http://www.w3.org/2000/svg" xmlns:xlink="http://www.w3.org/1999/xlink" viewBox="0 0 265.63 68.91"><defs><style>.cls-1{fill:#fff;}.cls-2{fill:#eb0d88;}.cls-3{fill:url(#linear-gradient);}.cls-4{fill:url(#linear-gradient-2);}</style><linearGradient id="linear-gradient" x1="52.76" y1="-139.03" x2="75.34" y2="-181.95" gradientTransform="translate(-30.7 181.01)" gradientUnits="userSpaceOnUse"><stop offset="0" stop-color="#674594"/><stop offset="0.23" stop-color="#813a92"/><stop offset="0.73" stop-color="#c41d8c"/><stop offset="1" stop-color="#eb0d88"/></linearGradient><linearGradient id="linear-gradient-2" x1="39.35" y1="-124.27" x2="61.74" y2="-166.8" gradientTransform="translate(-30.7 181.01)" gradientUnits="userSpaceOnUse"><stop offset="0" stop-color="#ec148b"/><stop offset="0.08" stop-color="#ed1c83"/><stop offset="0.22" stop-color="#ee336d"/><stop offset="0.38" stop-color="#f15749"/><stop offset="0.54" stop-color="#f48020"/><stop offset="1" stop-color="#f58a1f"/></linearGradient></defs><g id="Layer_2" data-name="Layer 2"><g id="Layer_1-2" data-name="Layer 1"><path class="cls-1" d="M104.34,57.4a24.39,24.39,0,0,1-9.44-1.8,23.2,23.2,0,0,1-7.49-4.87,22.45,22.45,0,0,1-4.94-7.24,22.1,22.1,0,0,1-1.8-8.88v-.13a22.55,22.55,0,0,1,6.8-16.21A24,24,0,0,1,95,13.36a25.81,25.81,0,0,1,18.89,0,23.5,23.5,0,0,1,7.49,4.88,22.45,22.45,0,0,1,4.94,7.24,22.1,22.1,0,0,1,1.8,8.88v.12a22.51,22.51,0,0,1-6.8,16.21,23.56,23.56,0,0,1-7.56,4.91,24.39,24.39,0,0,1-9.44,1.8m.1-11a11,11,0,0,0,4.6-.94,10.64,10.64,0,0,0,3.54-2.55,11.84,11.84,0,0,0,2.27-3.75,12.47,12.47,0,0,0,.82-4.53v-.13a12.51,12.51,0,0,0-.82-4.53,11.85,11.85,0,0,0-2.33-3.78,11.49,11.49,0,0,0-3.6-2.61,11.53,11.53,0,0,0-9.19,0,11,11,0,0,0-3.53,2.55,11.23,11.23,0,0,0-2.28,3.74,13.17,13.17,0,0,0-.78,4.54v.12A12.52,12.52,0,0,0,94,39a11.8,11.8,0,0,0,2.3,3.77,11,11,0,0,0,3.57,2.62,10.72,10.72,0,0,0,4.61,1"/><path class="cls-1" d="M212.21,45.26l-1-.81c-1.7-1.18-4-1.65-7.23-.05a8.44,8.44,0,0,1-1.26.53,12,12,0,0,1-4.86,1,10.2,10.2,0,0,1-6.13-1.79,9,9,0,0,1-3.36-5.43h29.36c.05-.54.08-1.08.08-1.62V35.52a30.78,30.78,0,0,0-1.34-9.2,22,22,0,0,0-4.05-7.63,19.53,19.53,0,0,0-6.9-5.23,23.08,23.08,0,0,0-9.85-1.94,21.94,21.94,0,0,0-8.93,1.78,21.49,21.49,0,0,0-7,4.91,22.09,22.09,0,0,0-4.58,7.3,24.34,24.34,0,0,0-1.63,9v.16A24,24,0,0,0,175.29,44a20.44,20.44,0,0,0,4.87,7.18,22.4,22.4,0,0,0,7.42,4.62,26.05,26.05,0,0,0,9.49,1.67A24,24,0,0,0,208.3,55a23.82,23.82,0,0,0,6.64-5.09,12,12,0,0,0-2.73-4.64M190.74,25a6.48,6.48,0,0,1,5-2.15A6.83,6.83,0,0,1,201,25a9.76,9.76,0,0,1,2.43,5.8H188.14a11.46,11.46,0,0,1,2.6-5.8"/><path class="cls-1" d="M261.45,57.41a4.69,4.69,0,0,0,4.18-4.57V28q0-7.71-4-12.11t-11.31-4.4a14.18,14.18,0,0,0-4.34.63,16.65,16.65,0,0,0-3.61,1.61,15.23,15.23,0,0,0-2.94,2.33A26.12,26.12,0,0,0,237,18.83v-6.3H221.17V57.41H237V33.1a7.8,7.8,0,0,1,1.84-5.64,6.28,6.28,0,0,1,4.71-1.91,5.8,5.8,0,0,1,4.51,1.91,8.2,8.2,0,0,1,1.72,5.64V57.41Z"/><path class="cls-1" d="M151.3,44.28a28.37,28.37,0,0,0,7.9-1.05,17.79,17.79,0,0,0,6.27-3.15,14.66,14.66,0,0,0,4.1-5.18A16.42,16.42,0,0,0,171,27.75v-.13a16.67,16.67,0,0,0-1.34-6.82,13.81,13.81,0,0,0-3.84-5.08,17.12,17.12,0,0,0-6-3.15A26.93,26.93,0,0,0,152,11.48H132.28V57.4H145V48.8a4.65,4.65,0,0,1,4.63-4.51Zm6.85-15.89a5.38,5.38,0,0,1-1.92,4.36,8.05,8.05,0,0,1-5.31,1.6h-6V22.23h5.93a8.44,8.44,0,0,1,5.38,1.54,5.43,5.43,0,0,1,1.92,4.49Z"/><path class="cls-2" d="M65.22,17.47a10.9,10.9,0,0,0-1.07-1.81,35,35,0,0,0-5.84-7c-1.89-1.37-9.67-2.53-12.86.15-4.1,3.44-3.36,9.81-2.21,14.19a4.16,4.16,0,0,1,0-.61A3.65,3.65,0,0,1,44.51,19c1.68-1.14,4.57-.37,6.12,1.91h0A19.22,19.22,0,0,1,36.7,51h0l-.08,0a50.6,50.6,0,0,1-9.45.17h0l-.23,0c-.52,0-1.06-.09-1.61-.16l-.3,0-.94-.11h0C15.1,49.72,6.92,47,.73,41.26h0A34.74,34.74,0,1,0,65.22,17.47Z"/><path class="cls-3" d="M45,.94C44.79.87,33.83-2.18,26,3.09a18.22,18.22,0,0,0-1.49,1.17A18.81,18.81,0,0,0,22,6.92c-.34.47-.67.94-1,1.41l-.15.24c-.18.31-.34.6-.5.9A18.38,18.38,0,0,0,18.64,21v0h0c0,.15.07.33.12.52.76,2.9,3.13,9.69,9.3,13.35,7.49,4.43,13.36,2.91,16,.15a5.83,5.83,0,0,0,.46-.55,6.53,6.53,0,0,0,.61-1l0,0c1.19-2.47.69-5.53-1-8.31a5.94,5.94,0,0,1-.67-1.53C42,19.25,41.67,10.93,46.19,8.44c3.66-2,10.41-.87,12.16.25A34.68,34.68,0,0,0,45,.94Z"/><path class="cls-4" d="M0,34.17c0,.61,0,1.21.05,1.8,0,.12,0,.23,0,.34,0,.48.06,1,.11,1.44,0,.12,0,.24.05.36.05.47.11.94.18,1.4l.06.33c.08.47.16.94.25,1.4v0C6.92,47,15.1,49.72,24.13,50.83h0l.94.11.3,0c.55.07,1.09.12,1.61.16l.23,0h0A50.6,50.6,0,0,0,36.67,51l.08,0h0a17.36,17.36,0,0,1-2.05.12A19.33,19.33,0,0,1,15.26,31.81a19.08,19.08,0,0,1,3.26-10.69h0l.11-.19a18.89,18.89,0,0,1,1.44-10.81s-.5-.54-.72-.75a8.24,8.24,0,0,0-.78-.63,6.27,6.27,0,0,0-3.29-1.17A7.65,7.65,0,0,0,9.92,9.86h0A34.53,34.53,0,0,0,3.34,19.3c-.24.5-.47,1-.68,1.52A34.68,34.68,0,0,0,0,34.17Z"/></g></g></svg>