<svg xmlns="http://www.w3.org/2000/svg" viewBox="0 0 361.4 89.91"><defs><style>.cls-1{fill:#f26522;fill-rule:evenodd;}</style></defs><g id="Layer_2" data-name="Layer 2"><g id="Layer_1-2" data-name="Layer 1"><path class="cls-1" d="M59.2,89.87l-43.26,0,.31-1.52,31.52-.91c6-.23,11.92-.55,17.6-2.48C77,81.11,86.3,73.18,89,63.36,92,52.83,85.22,42.59,72.54,41.71c10.75-3.15,19.91-10,22.35-18.72C98.06,11.6,92.32,5.85,82.65,3.74c16.09-.26,28.68,5.16,24.4,20.56-2.44,8.77-11.82,15.43-22.5,18.35a17.92,17.92,0,0,1,16.09,23.28C97.18,76.77,88.44,83.5,76.79,87.39,71.11,89.33,65.24,89.64,59.2,89.87Z"/><path class="cls-1" d="M36.49,84.43l-20.3,1a5.38,5.38,0,0,0,0-.9L67.57,69.32l.17-1.86L15.21,81a5.22,5.22,0,0,0-.39-.83l55-30.44-.55-1.52L13.07,77.3a3.65,3.65,0,0,0-.59-.71l65.37-61-.8-1.65-67,60.53c-.32-.23-.53-.39-.86-.59l47.92-69-2,0L6.07,72.4c-.27-.09-.57-.17-.86-.25L33.69,4.76H31.88L1.24,71.63H0L19.83,0l37,.11c17.52-1,31.36,3.72,26.81,20.09C81.23,29,72.07,35.8,61.39,38.71l-.07.23C74,39.83,81.15,50,78.22,60.56c-2.73,9.82-12.49,17.49-24.13,21.38C48.4,83.88,42.53,84.2,36.49,84.43Z"/><path class="cls-1" d="M146.78,74.92h3.48c3,0,3.63,1.54,3.09,4.07-.85,4-3.71,4-5,4h-3.33l1.73-8.11Zm2.48-11.68h3.68c2,0,3.12,1.54,2.67,3.64a4.14,4.14,0,0,1-3.9,3.64h-4l1.55-7.28Zm-.55,24.19c2.53,0,8.9-.32,10.44-7.57.83-3.91.3-6.65-3.81-7.24l0-.08a7.62,7.62,0,0,0,6.21-6.3c1.29-6.09-2.19-7.4-6.74-7.4H144.21l-6.07,28.59Z"/><path class="cls-1" d="M172.05,77.77c-.46,2.17-.89,6.61-4.18,6.61-1.82,0-1.68-1.74-1.38-3.17.76-3.56,2.76-3.32,5.56-3.44Zm6.32-4c.78-3.64.52-6.69-6.57-6.69a10.08,10.08,0,0,0-5.51,1.3,7,7,0,0,0-3.09,4.87h5.46c.34-1.58.81-3,2.75-3s2,1.23,1.63,2.93l-.32,1.55c-5.17-.08-10.34.2-11.74,6.81-.75,3.48.07,6.37,4,6.37a7.07,7.07,0,0,0,5.87-3h.08l-.33,2.66h5.19c.14-1.23.25-2.5.51-3.72Z"/><path class="cls-1" d="M188.26,67.43h-5.58l-4.25,20H184l2.93-13.78c.37-1.78,1-3.17,2.77-3.17s1.8,1.39,1.42,3.17L188.2,87.43h5.59l3.4-16c.59-2.77-1.4-4.35-4.06-4.35a6.22,6.22,0,0,0-5.22,2.41h-.08Z"/><polygon class="cls-1" points="202.02 87.43 204.33 76.54 204.41 76.54 207.28 87.43 213.58 87.43 209.64 76.34 217.19 67.43 211.37 67.43 204.55 75.86 204.47 75.86 208.09 58.84 202.51 58.84 196.43 87.43 202.02 87.43"/><path class="cls-1" d="M228.42,84.26c-2.06,0-2.3-1.31-1-7.4.88-4.16,1.53-6.26,3.9-6.26s2.13,2.1,1.24,6.26c-1.29,6.09-2.08,7.4-4.14,7.4Zm-.76,3.56c7.21,0,9.09-4.39,10.42-10.65,1.16-5.46,1.36-10.13-6-10.13s-9.15,4.67-10.31,10.13C220.44,83.43,220.45,87.82,227.66,87.82Z"/><path class="cls-1" d="M252.88,58.72c-.66,0-1.29-.08-2-.08-6.81,0-7,3-8.16,8.79h-2.54l-.73,3.45H242l-3.51,16.55h5.58l3.52-16.55h2.61l.73-3.45H248.3l.51-2.41c.43-2,1.09-2.89,3.32-2.73Z"/><path class="cls-1" d="M263.62,74.92h3.49c3,0,3.63,1.54,3.09,4.07-.85,4-3.71,4-5,4H261.9l1.72-8.11Zm2.49-11.68h3.68c2,0,3.12,1.54,2.67,3.64a4.14,4.14,0,0,1-3.9,3.64h-4l1.55-7.28Zm-.55,24.19c2.53,0,8.89-.32,10.43-7.57.84-3.91.31-6.65-3.8-7.24l0-.08a7.59,7.59,0,0,0,6.2-6.3c1.3-6.09-2.18-7.4-6.74-7.4H261.06L255,87.43Z"/><path class="cls-1" d="M288.9,77.77c-.46,2.17-.89,6.61-4.18,6.61-1.82,0-1.69-1.74-1.38-3.17.76-3.56,2.76-3.32,5.56-3.44Zm6.32-4c.78-3.64.51-6.69-6.57-6.69a10.08,10.08,0,0,0-5.51,1.3,7,7,0,0,0-3.09,4.87h5.46c.34-1.58.81-3,2.75-3s2,1.23,1.63,2.93l-.33,1.55c-5.17-.08-10.33.2-11.74,6.81-.74,3.48.07,6.37,3.95,6.37a7.08,7.08,0,0,0,5.88-3h.08l-.33,2.66h5.19c.14-1.23.25-2.5.51-3.72Z"/><path class="cls-1" d="M299.52,67.43l-4.25,20h5.59l2.31-10.89c.42-2,1.11-4.83,5.95-4.52l1.06-5a6.4,6.4,0,0,0-5.82,3h-.08l.55-2.58Z"/><path class="cls-1" d="M315.13,84.26c-2.06,0-2.3-1.31-1-7.4.88-4.16,1.53-6.26,3.9-6.26s2.13,2.1,1.25,6.26c-1.3,6.09-2.09,7.4-4.15,7.4Zm-.76,3.56c7.21,0,9.09-4.39,10.42-10.65,1.16-5.46,1.36-10.13-6-10.13s-9.15,4.67-10.31,10.13C307.15,83.43,307.17,87.82,314.37,87.82Z"/><path class="cls-1" d="M333,84.38c-2,0-1.93-2.1-.86-7.13.85-4,1.4-6.77,3.82-6.77s1.66,2.77.81,6.77c-1.07,5-1.87,7.13-3.77,7.13Zm7.19,3.05,6.08-28.59h-5.58l-2.23,10.49h-.08c-.79-1.7-2.05-2.29-4.07-2.29-5.62,0-6.78,6.21-7.64,10.25S324.22,87.82,330,87.82a6,6,0,0,0,5.27-2.61h.08l-.47,2.22Z"/><path class="cls-1" d="M354.78,77.77c-.46,2.17-.89,6.61-4.18,6.61-1.82,0-1.68-1.74-1.38-3.17.76-3.56,2.77-3.32,5.56-3.44Zm6.32-4c.78-3.64.52-6.69-6.57-6.69a10.08,10.08,0,0,0-5.51,1.3,7,7,0,0,0-3.09,4.87h5.46c.34-1.58.81-3,2.75-3s2,1.23,1.63,2.93l-.32,1.55c-5.17-.08-10.34.2-11.75,6.81-.74,3.48.07,6.37,4,6.37a7.07,7.07,0,0,0,5.87-3h.08l-.33,2.66h5.19c.14-1.23.25-2.5.51-3.72Z"/><path class="cls-1" d="M236.74,9.53c-1.25,4.79-3.45,5.05-6.19,5.05H225.2c-4.47,0-4.83-1.92-3.93-5.05h5.29c-.51,1.63-1.17,3.12,1.65,3.12,1.85,0,2.47-.45,3.18-3l5.35-.09Zm46,25-4-5.2-.35,1.32c-1,4-1,5.61,1.46,5.61a3,3,0,0,0,2.91-1.73Zm-3-7.66h0a3.14,3.14,0,0,1,3-1.61c2.88,0,2.25,2.24,1.44,5.4l-.4,1.42-4-5.21Zm26.41-2.61,1.07-4.57h-15l-5.68,22.09h-5.07l1.33-4.82c-1.45,1.53-4,2-6,2-5.53,0-4.62-5.32-3.78-8.58s2.51-7.87,7.89-7.87c1.93,0,4.07.52,4.82,1.87l1.2-4.71h-12.3l.76-2.43h36.09L307,11.74,310.67,9l4.73,8.19h1.44l-3.79-10,4.47-2,2.61,12h34.08l-.76,2.43H350.6l-5.68,22.1h-5.07l5.68-22.1h-4.41l-1.76,5.61h-7.09c-2.31,0-2.95,2.77-3.89,6.84-1.14,4.91-2,7.86,1.17,7.86a3.76,3.76,0,0,0,1-.24c-.33-3,1.4-6.54,5-6.54,3.26,0,3.27,1.79,2.83,3.37a5.15,5.15,0,0,1-4,4,5,5,0,0,0,3.86,2.3l-5.46,3a8.53,8.53,0,0,1-2.22-4.31,15.84,15.84,0,0,1-3.95.46c-6.55,0-5.46-6.4-4.35-10.73s3.07-8.36,8.45-8.36c1.93,0,4.1.12,4.1.12l1-3.4H321.5l-5.68,22.1h-5.07l5.68-22.1h-4.06l-2,7.79h-5.09c.43-1.71-.36-2.34-2.52-2.34-2,0-2.55.28-3.35,3.07-.58,2.39.1,2.89,2.47,2.83h4c3,0,3.51,1.12,2.46,5.55-1.31,5-3.74,5.27-6.78,5.27h-5.93c-5.19,0-5.38-2.32-4.21-6.09h5.86c-.54,2-1.72,4,1.68,4,2.06,0,2.74-.5,3.53-3.36.65-2.06.8-3.13-2.33-3.13,0,0-2.77,0-4.09,0-3.48,0-2.93-2.94-2.3-5.37,1.23-4.5,2.11-5.08,7.3-5.08,3.18,0,4.59.34,5,1.53Zm-140.19,12c1.82,0,2.58-1.66,3.61-5.64.81-3.16,1.41-5.35-.79-5.35s-2.83,2.19-3.64,5.35c-1,4-1.11,5.64.82,5.64Zm.95,5.46c1.33-4.82,1.3-4.8,1.3-4.8l-1.3,4.8Zm-17.61-7.44L145.23,29c-.14.49-.28,1-.42,1.58-1,4-1,5.61,1.46,5.61a3.09,3.09,0,0,0,3-1.94Zm-3-7.64h0a3.1,3.1,0,0,1,2.84-1.42c2.88,0,2.25,2.24,1.44,5.4l-.32,1.16-4-5.14Zm3.9-9.42-4.43-5.48L149.42,9l4.73,8.19h1.43l-3.79-10,4.47-2,2.62,12h29.57l-.76,2.43H177.41l-1.26,5.13a6.42,6.42,0,0,1,5.12-2.13c5.53,0,4.32,5.23,3.48,8.48s-2.21,7.81-7.59,7.81a3.94,3.94,0,0,1-2.56-.7l.38-1.43a2.62,2.62,0,0,0,.5.13c2.31,0,2.94-2.77,3.75-5.93,1-4,1.11-5.64-.82-5.64-1.61,0-2.56,1.2-3.47,4.25l-3,12.12-5,0,1.3-4.8A6.47,6.47,0,0,1,163.08,39c-5.53,0-4.27-5.51-3.43-8.77s2.16-7.67,7.54-7.67c1.93,0,3.14.47,3.89,1.82l1.2-4.71H158.59l-5.68,22.09h-5.07l1.34-4.82c-1.46,1.53-4,2-6.05,2-5.53,0-4.42-5.64-3.59-8.9s2.33-7.55,7.71-7.55c1.93,0,4.06.52,4.81,1.87l1.2-4.71H140.88l.76-2.43ZM202,41.71h-7.58l.64-2.5h6.6a5.15,5.15,0,0,0,5-4.25c.54-2.1-.37-4.53-3.38-4.53h-5l.66-2.74h5.75c2,0,3.6-1.73,4.19-4,.45-1.74.35-4.06-2.68-4.06h-6.17l.64-2.5h7.42c3.77,0,7.85,1.62,6.76,6.13-.81,3.36-2.54,5.05-6.5,5.68,4.1.56,4.91,3.29,4.08,6.54-1.55,6-7.92,6.26-10.46,6.26ZM247.7,19.65h-4l-3.13,12.06c-.37,1.41-.33,2.44,1.38,2.44s2.35-1.61,2.71-3l3-11.48Zm-30.13-2.43h0l-.76,2.43H220l-2.06,8h-4.07l-.69,2.48h4.13l-3,11.6h5.08L225,19.65h4l-5.68,22.1h5.07l5.68-22.1h4.23l-3.58,13.78c-.56,2.19,1.35,3.44,3.89,3.44A6.79,6.79,0,0,0,243.73,35l-1.68,6.77h5.53c.15-1,1.62-7.27,1.89-8.3l1.32-5.11a3.12,3.12,0,0,1,2.59-2.13c1.71,0,1.73,1.09,1.37,2.5L252,39.59h5.34l3.25-12.68c.57-2.19-1.34-3.45-3.88-3.45a7,7,0,0,0-5.13,2l1.52-5.83h9.19l.76-2.43Zm-56.66-6h0l-1.08,4h4.83l1.08-4Zm73.34,28.9h4.83l-1.09,4h-4.83l1.09-4Zm61.31,4-1.08,4h4.83l1.08-4Z"/></g></g></svg>