<svg xmlns="http://www.w3.org/2000/svg" viewBox="0 0 107.89 89.91"><defs><style>.cls-1{fill:#f26522;fill-rule:evenodd;}</style></defs><g id="Layer_2" data-name="Layer 2"><g id="Layer_1-2" data-name="Layer 1"><path class="cls-1" d="M59.2,89.87l-43.26,0,.31-1.52,31.52-.91c6-.23,11.92-.55,17.6-2.48C77,81.11,86.3,73.18,89,63.36,92,52.83,85.22,42.59,72.54,41.71c10.75-3.15,19.91-10,22.35-18.72C98.06,11.6,92.32,5.85,82.65,3.74c16.09-.26,28.68,5.16,24.4,20.56-2.44,8.77-11.82,15.43-22.5,18.35a17.92,17.92,0,0,1,16.09,23.28C97.18,76.77,88.44,83.5,76.79,87.39,71.11,89.33,65.24,89.64,59.2,89.87Z"/><path class="cls-1" d="M36.49,84.43l-20.3,1a5.38,5.38,0,0,0,0-.9L67.57,69.32l.17-1.86L15.21,81a5.22,5.22,0,0,0-.39-.83l55-30.44-.55-1.52L13.07,77.3a3.65,3.65,0,0,0-.59-.71l65.37-61-.8-1.65-67,60.53c-.32-.23-.53-.39-.86-.59l47.92-69-2,0L6.07,72.4c-.27-.09-.57-.17-.86-.25L33.69,4.76H31.88L1.24,71.63H0L19.83,0l37,.11c17.52-1,31.36,3.72,26.81,20.09C81.23,29,72.07,35.8,61.39,38.71l-.07.23C74,39.83,81.15,50,78.22,60.56c-2.73,9.82-12.49,17.49-24.13,21.38C48.4,83.88,42.53,84.2,36.49,84.43Z"/></g></g></svg>