<?xml version="1.0" encoding="utf-8"?>
<!-- Generator: Adobe Illustrator 24.2.3, SVG Export Plug-In . SVG Version: 6.00 Build 0)  -->
<svg version="1.1" id="Layer_1" xmlns="http://www.w3.org/2000/svg" xmlns:xlink="http://www.w3.org/1999/xlink" x="0px" y="0px"
	 viewBox="0 0 111 30.6" style="enable-background:new 0 0 111 30.6;" xml:space="preserve">
<style type="text/css">
	.st0{fill:#0B4166;}
	.st1{fill:#1A78BE;}
	.st2{clip-path:url(#SVGID_2_);}
	.st3{clip-path:url(#SVGID_4_);}
	.st4{clip-path:url(#SVGID_6_);}
	.st5{clip-path:url(#SVGID_8_);}
	.st6{clip-path:url(#SVGID_10_);}
</style>
<g id="Layer_2_1_">
	<g id="Front_Back">
		<polygon class="st0" points="0,8.1 11.1,14.9 17.6,11.3 13.2,8.9 13.2,8 		"/>
		<polygon class="st1" points="11.5,30.6 25.1,30.6 11.4,22.8 		"/>
		<polygon class="st1" points="0,0 0,8.1 17.9,8 24.1,0 		"/>
		<polygon class="st1" points="2.9,19.5 17.6,19.4 17.6,11.3 		"/>
		<polygon class="st0" points="2.9,19.5 11.5,30.6 11.4,19.4 		"/>
		<g>
			<defs>
				<path id="SVGID_1_" d="M27.1,10.9L27,9l-3.1,0.6c0.2,1.9,0.1,3.8-0.2,5.7l-2.2,10.2h3.9c0,0,0.9-7.1,1.6-10.7
					c0.5-2.7,2.8-3.4,4.6-3.7c1.5-0.1,2.7,1,2.8,2.5c0,0.1,0,0.1,0,0.2C34.2,16.7,32,25.5,32,25.5h3.7c0,0,1.9-11.9,1.9-12.6
					c0-3.2-2.1-4.1-4.5-4.2h-0.2C30.8,8.8,28.8,9.6,27.1,10.9"/>
			</defs>
			<clipPath id="SVGID_2_">
				<use xlink:href="#SVGID_1_"  style="overflow:visible;"/>
			</clipPath>
			<g class="st2">
				<rect x="20.8" y="8.4" class="st1" width="17" height="18"/>
				<rect x="16.4" y="3.7" class="st1" width="26.2" height="26.9"/>
				<rect x="20.8" y="8.4" class="st1" width="17" height="18"/>
				<rect x="11.4" y="-1.3" class="st1" width="36.2" height="36.9"/>
			</g>
		</g>
		<g>
			<defs>
				<path id="SVGID_3_" d="M56.3,2.8c0,0-8.6,9.4-9.3,10.4h-0.8L48.3,3h-3.7l-4.2,22.7l3.6-0.1l1.1-6.5l2.7-3.4h1.5l3.8,10h4.4
					l-5.7-13.2l8.8-9.7L56.3,2.8z"/>
			</defs>
			<clipPath id="SVGID_4_">
				<use xlink:href="#SVGID_3_"  style="overflow:visible;"/>
			</clipPath>
			<g class="st3">
				<rect x="-37.2" y="-40.6" class="st1" width="595" height="842"/>
				<rect x="39.8" y="2.4" class="st1" width="21" height="24"/>
				<rect x="35.4" y="-2.3" class="st1" width="30.3" height="33"/>
				<rect x="39.8" y="2.4" class="st1" width="21" height="24"/>
				<rect x="30.4" y="-7.3" class="st1" width="40.3" height="43"/>
			</g>
		</g>
		<g>
			<defs>
				<path id="SVGID_5_" d="M99.5,2.3l-4.6,23.3h4l1.7-11.3c0.3-1.1,1.8-2.8,4.7-2.7c3,0.1,2.3,3.8,2.2,4.5l-2.1,9.4h4
					c1.7-11.8,1.7-11.8,1.7-12.9c0-3.1-2.7-4.1-5-4c-1.6,0.2-3.2,0.7-4.5,1.7l1-8.1L99.5,2.3z"/>
			</defs>
			<clipPath id="SVGID_6_">
				<use xlink:href="#SVGID_5_"  style="overflow:visible;"/>
			</clipPath>
			<g class="st4">
				<rect x="-37.2" y="-40.6" class="st1" width="595" height="842"/>
				<rect x="94.8" y="1.4" class="st1" width="17" height="25"/>
				<rect x="89.9" y="-2.7" class="st1" width="26.2" height="33.3"/>
				<rect x="94.8" y="1.4" class="st1" width="17" height="25"/>
				<rect x="84.9" y="-7.7" class="st1" width="36.2" height="43.3"/>
			</g>
		</g>
		<g>
			<defs>
				<path id="SVGID_7_" d="M82,14.2c0,1.9,1.4,2.6,3.3,3.6c1.7,0.9,3.2,2,3.2,3s-1.8,2.2-3.4,2.2c-1.4,0-2.8-0.7-3.5-2l-1.7,3.2
					c1.4,1,3,1.5,4.7,1.5c4,0,7.3-1.8,7.3-5.5c0-2.6-1.9-3.5-3.7-4.5c-1.4-0.7-2.6-1.5-2.6-2.4c0-1.1,1.3-2.1,2.8-2.1
					s2.8,1.3,3.4,1.6l1.4-3c-1.6-0.7-3.4-1.1-5.2-1.2C84.1,8.8,82,11,82,14.2"/>
			</defs>
			<clipPath id="SVGID_8_">
				<use xlink:href="#SVGID_7_"  style="overflow:visible;"/>
			</clipPath>
			<g class="st5">
				<rect x="-37.2" y="-40.6" class="st1" width="595" height="842"/>
				<rect x="79.8" y="8.4" class="st1" width="14" height="18"/>
				<rect x="74.9" y="3.7" class="st1" width="23.4" height="27.1"/>
				<rect x="79.8" y="8.4" class="st1" width="14" height="18"/>
				<rect x="69.9" y="-1.3" class="st1" width="33.3" height="37.1"/>
			</g>
		</g>
		<g>
			<defs>
				<path id="SVGID_9_" d="M65.2,19.8c0.2-2.6,1.3-4.9,3.1-6.7c0.9-1.1,2.3-1.8,3.7-2c3-0.1,0.6,7,0.6,7C70.8,22.4,69.7,23,68,23
					h-0.1C66.2,23,65.2,21.5,65.2,19.8 M61.7,20.6c-0.2,2.6,1.8,4.9,4.5,5.1c0,0,0.1,0,0.1,0c1.7,0.2,3.4-0.3,4.7-1.3
					c0.6-0.5,0.8-1,1.4-0.6c0.4,0.2,0.4,0.9,0.8,1.5l2.7-0.1c-0.9-2.4-1.1-5-0.4-7.5l1.6-8.4C75.6,9,74,8.7,72.3,8.7
					C64.5,8.7,61.7,14.9,61.7,20.6"/>
			</defs>
			<clipPath id="SVGID_10_">
				<use xlink:href="#SVGID_9_"  style="overflow:visible;"/>
			</clipPath>
			<g class="st6">
				<rect x="60.8" y="8.4" class="st1" width="17" height="18"/>
				<rect x="56.6" y="3.7" class="st1" width="25.4" height="27"/>
				<rect x="60.8" y="8.4" class="st1" width="17" height="18"/>
				<rect x="51.6" y="-1.3" class="st1" width="35.4" height="37"/>
			</g>
		</g>
	</g>
</g>
</svg>
