<svg xmlns="http://www.w3.org/2000/svg" viewBox="0 0 104.22 26.6"><defs><style>.cls-1{fill:#d92d2a;}.cls-2{fill:#364453;}.cls-3{fill:#364553;}</style></defs><g id="Layer_2" data-name="Layer 2"><g id="Layer_1-2" data-name="Layer 1"><rect class="cls-1" y="0.34" width="24.03" height="8.92"/><path class="cls-2" d="M66.71,24.71A12.36,12.36,0,1,1,79.07,12.35,12.37,12.37,0,0,1,66.71,24.71ZM66.71,5a7.4,7.4,0,1,0,7.4,7.4A7.41,7.41,0,0,0,66.71,5Z"/><rect class="cls-1" y="16.19" width="24.03" height="8.92"/><polygon class="cls-2" points="30.28 25.11 30.28 0.53 49.48 0.53 49.48 5.67 35.3 5.67 35.3 10.06 49.48 10.06 49.48 15.33 35.48 15.33 35.48 19.6 49.48 19.6 49.48 25.11 30.28 25.11"/><polygon class="cls-2" points="66.57 16.19 77.04 26.6 79.89 23.69 69.48 13.22 66.57 16.19"/><polygon class="cls-3" points="84.96 0.53 84.96 24.86 104.22 24.86 104.22 19.6 90.33 19.6 90.33 0.53 84.96 0.53"/></g></g></svg>