<svg xmlns="http://www.w3.org/2000/svg" viewBox="0 0 100.64 23.88"><defs><style>.cls-1{fill:#021609;}.cls-2{fill:#26e2a0;}</style></defs><g id="Layer_2" data-name="Layer 2"><g id="Layer_1-2" data-name="Layer 1"><path id="Path_3176" data-name="Path 3176" class="cls-1" d="M14.5,23.88l-4.29-4.15V13.67h-6L0,9.38H14.5Z"/><path id="Path_3265" data-name="Path 3265" class="cls-1" d="M0,18.35H5.49v5.53Z"/><path id="Path_3177" data-name="Path 3177" class="cls-2" d="M23.8,23.88l-4.28-4.1V4.37H4.1L0,.08h23.8Z"/><path class="cls-1" d="M86,7.63h3.82v2.58h.07A5.66,5.66,0,0,1,91.6,8.12a5.15,5.15,0,0,1,3.18-.89,6.27,6.27,0,0,1,2.73.54,5.13,5.13,0,0,1,1.82,1.4,5.28,5.28,0,0,1,1,2,9.3,9.3,0,0,1,.31,2.38V23.7h-4V15.57c0-.45,0-1-.07-1.49a5.17,5.17,0,0,0-.35-1.54,2.9,2.9,0,0,0-.89-1.21,2.56,2.56,0,0,0-1.64-.48,3.89,3.89,0,0,0-1.69.33,3.38,3.38,0,0,0-1.14.9,3.74,3.74,0,0,0-.65,1.31,6,6,0,0,0-.2,1.54V23.7H86Z"/><path class="cls-1" d="M31.91,0h15.3V3.82H36.13V10H47.21v3.82H36.13V23.7H31.91Z"/><path class="cls-1" d="M51.23,7.63h4V23.7h-4Z"/><path class="cls-1" d="M51.23,0h4V3.86h-4Z"/><path class="cls-1" d="M77.94,0h4V3.86h-4Z"/><path class="cls-1" d="M59.26,7.63h3.82v2.58h.06a5.66,5.66,0,0,1,1.74-2.09,5.17,5.17,0,0,1,3.18-.89,6.24,6.24,0,0,1,2.73.54,5.08,5.08,0,0,1,1.83,1.4,5.28,5.28,0,0,1,1,2,9.3,9.3,0,0,1,.3,2.38V23.7h-4V15.57c0-.45,0-1-.07-1.49a5.5,5.5,0,0,0-.35-1.54,2.9,2.9,0,0,0-.89-1.21A2.56,2.56,0,0,0,67,10.85a3.89,3.89,0,0,0-1.69.33,3.28,3.28,0,0,0-1.14.9,3.58,3.58,0,0,0-.65,1.31,5.56,5.56,0,0,0-.2,1.54V23.7h-4Z"/><path class="cls-1" d="M77.94,7.63h4V23.7h-4Z"/></g></g></svg>