<svg xmlns="http://www.w3.org/2000/svg" viewBox="0 0 80.51 31.66"><defs><style>.cls-1,.cls-2{fill:#181818;}.cls-2{fill-rule:evenodd;}</style></defs><g id="Layer_2" data-name="Layer 2"><g id="Layer_1-2" data-name="Layer 1"><g id="Page-1"><g id="grit_logo_color-copy" data-name="grit logo color-copy"><path id="Shape" class="cls-1" d="M51.28,10.25a6.3,6.3,0,0,0-4.61-1.94,6.52,6.52,0,0,0,0,13c3.65,0,6.14-2.11,6.14-6.75h-6.2v1.93H50.1c-.06,1.63-1.74,2.64-3.43,2.64a4.21,4.21,0,0,1-4.11-4.33,4.18,4.18,0,0,1,4.11-4.32,4,4,0,0,1,2.87,1.24Zm8.61.31a1.83,1.83,0,0,1,1.71,2,1.81,1.81,0,0,1-1.79,2H57.27v-4Zm.94,6a3.78,3.78,0,0,0,3.22-4,3.86,3.86,0,0,0-4-4.11H54.91v12.7h2.36V16.64h1l3,4.52h2.84Zm5.71,4.61h2.34V8.46H66.54ZM71,10.61h3.58V21.16h2.38V10.61h3.57V8.46H71Z"/><path id="Path" class="cls-2" d="M22.26,19.07a7.2,7.2,0,1,1,0-6.48H19.69a5,5,0,1,0,0,6.48Z"/><rect id="Rectangle" class="cls-1" x="15.83" y="14.75" width="13.85" height="2.16"/><path id="Path-2" data-name="Path" class="cls-2" d="M31.66,15.83a15.83,15.83,0,1,1-.36-3.36H29.09a13.7,13.7,0,1,0,.41,3.36c0-.36,0-.71,0-1.07h2.16C31.65,15.12,31.66,15.47,31.66,15.83Z"/><path id="Shape-2" data-name="Shape" class="cls-2" d="M27.34,15.83c0,.2,0,.4,0,.6H25.16c0-.2,0-.4,0-.6s0-.7-.05-1H27.3C27.33,15.13,27.34,15.48,27.34,15.83ZM15.83,27.34a11.51,11.51,0,0,0,11-8.23H24.59a9.35,9.35,0,1,1,0-6.61h2.28a11.51,11.51,0,1,0-11,14.84Z"/></g></g></g></g></svg>