<svg xmlns="http://www.w3.org/2000/svg" viewBox="0 0 60.57 64.65"><defs><style>.cls-1{fill:#4988c7;}.cls-2{fill:#4d5c7a;}</style></defs><g id="Layer_2" data-name="Layer 2"><g id="Layer_1-2" data-name="Layer 1"><polygon class="cls-1" points="34.76 0 27.18 0 27.18 16.72 40.84 6.08 34.76 0"/><polygon class="cls-1" points="30.6 20.16 44.41 29.97 44.41 9.65 44.27 9.51 30.6 20.16"/><polygon class="cls-1" points="27.18 40.44 44.41 40.44 44.41 35.86 27.18 23.63 27.18 40.44"/><polygon class="cls-1" points="22.22 35.42 22.22 0 16.16 0 16.16 29.36 22.22 35.42"/><path class="cls-2" d="M6.25,64.61H5.68V60.86H7.06A1.11,1.11,0,0,1,8.15,62,1.11,1.11,0,0,1,7.06,63H6.25Zm0-2.15h.81a.53.53,0,0,0,.37-.15A.49.49,0,0,0,7.58,62a.51.51,0,0,0-.15-.37.53.53,0,0,0-.37-.15H6.25Z"/><path class="cls-2" d="M9,64.08a1.84,1.84,0,0,1-.56-1.35,1.92,1.92,0,0,1,3.83,0,1.91,1.91,0,0,1-1.91,1.91A1.84,1.84,0,0,1,9,64.08m.41-2.29a1.34,1.34,0,0,0,1,2.28,1.28,1.28,0,0,0,.94-.39,1.34,1.34,0,0,0,0-1.89,1.34,1.34,0,0,0-1.89,0"/><polygon class="cls-2" points="13.26 60.86 13.26 63.7 14.94 60.86 15.62 60.86 15.62 63.7 17.29 60.86 17.95 60.86 15.75 64.61 15.05 64.61 15.05 61.79 13.39 64.61 12.69 64.61 12.69 60.86 13.26 60.86"/><polygon class="cls-2" points="20.18 60.86 20.18 61.43 18.84 61.43 18.84 62.45 19.87 62.45 19.87 63.01 18.84 63.01 18.84 64.04 20.18 64.04 20.18 64.61 18.27 64.61 18.27 60.86 20.18 60.86"/><path class="cls-2" d="M23.28,64.61h-.65L21.81,63h-.64v1.58h-.56V60.86H22a1,1,0,0,1,.76.32,1,1,0,0,1,.32.77,1.06,1.06,0,0,1-.18.6,1,1,0,0,1-.48.39ZM22,62.46A.51.51,0,0,0,22.5,62a.51.51,0,0,0-.15-.37.49.49,0,0,0-.36-.15h-.82v1Z"/><rect class="cls-2" x="23.6" y="60.87" width="0.57" height="3.74"/><polygon class="cls-2" points="27.52 60.86 27.52 64.61 26.92 64.61 25.32 61.93 25.32 64.61 24.75 64.61 24.75 60.86 25.35 60.86 26.95 63.54 26.95 60.86 27.52 60.86"/><path class="cls-2" d="M28.51,64.09a1.92,1.92,0,0,1,0-2.71A1.9,1.9,0,0,1,30.6,61l-.22.53a1.31,1.31,0,0,0-.52-.11,1.35,1.35,0,0,0-1.34,1.34,1.3,1.3,0,0,0,.39,1,1.31,1.31,0,0,0,.95.39,1.34,1.34,0,0,0,.35,0V63H29.6v-.57h1.18v2l-.17.07a1.93,1.93,0,0,1-.75.15,1.83,1.83,0,0,1-1.35-.55"/><path class="cls-2" d="M33.55,64.64a1.38,1.38,0,0,1-.69-.2,1,1,0,0,1-.48-.55l.53-.2a.56.56,0,0,0,.27.28.91.91,0,0,0,.4.1.77.77,0,0,0,.54-.16.46.46,0,0,0,.19-.33q0-.36-.75-.57c-.8-.23-1.19-.61-1.17-1.15a1,1,0,0,1,.48-.84,1.4,1.4,0,0,1,.85-.19,1.29,1.29,0,0,1,1,.41l-.42.39a.81.81,0,0,0-.57-.24,1.2,1.2,0,0,0-.44.07.46.46,0,0,0-.29.43q0,.34.75.57a1.81,1.81,0,0,1,1,.57.85.85,0,0,1,.19.57,1,1,0,0,1-.41.76,1.31,1.31,0,0,1-.85.29h-.07"/><polygon class="cls-2" points="37.36 60.86 37.36 61.43 36.56 61.43 36.56 64.61 35.99 64.61 35.99 61.43 35.2 61.43 35.2 60.86 37.36 60.86"/><path class="cls-2" d="M40.16,60.86v3.75h-.57v-.87H38.31l-.55.87h-.67l2.37-3.75Zm-1.49,2.31h.92V61.72Z"/><path class="cls-2" d="M43.44,64.61H42.8L42,63h-.65v1.58h-.56V60.86h1.38a1,1,0,0,1,.76.32,1,1,0,0,1,.32.77,1.06,1.06,0,0,1-.18.6,1,1,0,0,1-.48.39Zm-1.29-2.15a.51.51,0,0,0,.51-.51.51.51,0,0,0-.15-.37.49.49,0,0,0-.36-.15h-.82v1Z"/><polygon class="cls-2" points="45.78 60.86 45.78 61.43 44.99 61.43 44.99 64.61 44.42 64.61 44.42 61.43 43.63 61.43 43.63 60.86 45.78 60.86"/><path class="cls-2" d="M46.71,64.25a1.27,1.27,0,0,1-.38-.94V60.86h.56v2.45a.74.74,0,0,0,.23.54.77.77,0,0,0,1.08,0,.77.77,0,0,0,.22-.54V60.86H49v2.45a1.28,1.28,0,0,1-.39.94,1.29,1.29,0,0,1-.94.39,1.31,1.31,0,0,1-.95-.39"/><path class="cls-2" d="M50.21,64.61h-.57V60.86H51a1.07,1.07,0,0,1,.77.32,1,1,0,0,1,.31.77A1.08,1.08,0,0,1,51,63h-.81Zm0-2.15H51a.53.53,0,0,0,.37-.15.48.48,0,0,0,.14-.36.5.5,0,0,0-.14-.37.53.53,0,0,0-.37-.15h-.81Z"/><path class="cls-2" d="M53.56,64.64a1.41,1.41,0,0,1-.69-.2,1.07,1.07,0,0,1-.48-.55l.54-.2a.49.49,0,0,0,.27.28.84.84,0,0,0,.39.1.77.77,0,0,0,.54-.16.46.46,0,0,0,.19-.33q0-.36-.75-.57c-.8-.23-1.19-.61-1.17-1.15a1,1,0,0,1,.49-.84,1.35,1.35,0,0,1,.84-.19,1.29,1.29,0,0,1,1,.41l-.42.39a.79.79,0,0,0-.57-.24,1.11,1.11,0,0,0-.43.07.45.45,0,0,0-.3.43q0,.34.75.57a1.81,1.81,0,0,1,1,.57.85.85,0,0,1,.19.57,1,1,0,0,1-.41.76,1.31,1.31,0,0,1-.85.29h-.07"/><polygon class="cls-2" points="2.78 49.8 6.2 45.95 9.72 45.95 5.5 50.38 10.14 56.65 6.61 56.65 3.58 52.4 2.78 53.25 2.78 56.65 0 56.65 0 45.95 2.78 45.95 2.78 49.8"/><path class="cls-2" d="M18,55.26h-4.1l-.66,1.39H10.28l5.6-10.84h.06l5.6,10.84H18.63ZM15,52.9H16.8l-.89-1.83Z"/><path class="cls-2" d="M30.44,56.65H27.67L25.75,53H24.66v3.61H21.89V46h4.65a3.38,3.38,0,0,1,2.51,1,3.32,3.32,0,0,1,1.05,2.49,3.4,3.4,0,0,1-1.83,3.12Zm-5.78-8.34v2.38h1.46a1.13,1.13,0,0,0,.85-.35,1.18,1.18,0,0,0,0-1.68,1.17,1.17,0,0,0-.85-.35Z"/><path class="cls-2" d="M30.79,46h4.45a2.76,2.76,0,0,1,2.91,2.92,2.58,2.58,0,0,1-1,2.15,2.68,2.68,0,0,1,1.6,2.57,2.94,2.94,0,0,1-3.06,3.06H30.79Zm2.78,2.36V50h.89c.61,0,.92-.28.92-.83s-.31-.84-.92-.84Zm0,4v1.95h1.28c.72,0,1.08-.32,1.08-1s-.36-1-1.08-1Z"/><path class="cls-2" d="M38.82,51.34a5.42,5.42,0,0,1,1.71-4.14,5.52,5.52,0,0,1,3.92-1.53,5.57,5.57,0,0,1,5.63,5.56,5.33,5.33,0,0,1-1.59,3.89,5.46,5.46,0,0,1-4.07,1.63,5.81,5.81,0,0,1-2.29-.43,5.88,5.88,0,0,1-1.76-1.21,5.2,5.2,0,0,1-1.55-3.74Zm2.78-.11a3.15,3.15,0,0,0,.78,2.09,2.68,2.68,0,0,0,2.1.91,2.57,2.57,0,0,0,2.13-1,3.2,3.2,0,0,0,0-4,2.63,2.63,0,0,0-2.15-1,2.67,2.67,0,0,0-2.12.95,3,3,0,0,0-.74,2Z"/><polygon class="cls-2" points="57.79 45.95 60.57 45.95 60.57 56.75 60.51 56.75 53.34 51.2 53.34 56.65 50.57 56.65 50.57 45.81 50.62 45.81 57.79 51.41 57.79 45.95"/></g></g></svg>