<svg xmlns="http://www.w3.org/2000/svg" viewBox="0 0 60.57 18.97"><defs><style>.cls-1{fill:#4d5c7a;}</style></defs><g id="Layer_2" data-name="Layer 2"><g id="Layer_1-2" data-name="Layer 1"><path class="cls-1" d="M6.25,18.93H5.68V15.19H7.06a1.11,1.11,0,0,1,1.09,1.09,1.09,1.09,0,0,1-1.09,1.07H6.25Zm0-2.14h.81a.53.53,0,0,0,.37-.15.49.49,0,0,0,.15-.36.5.5,0,0,0-.15-.37.53.53,0,0,0-.37-.15H6.25Z"/><path class="cls-1" d="M9,18.41a1.91,1.91,0,0,1,0-2.7,1.92,1.92,0,0,1,2.71,0,1.91,1.91,0,0,1,0,2.7,1.92,1.92,0,0,1-2.71,0m.41-2.3a1.31,1.31,0,0,0-.39.95,1.3,1.3,0,0,0,.39,1,1.34,1.34,0,0,0,1.89,0,1.3,1.3,0,0,0,.39-1,1.31,1.31,0,0,0-.39-.95,1.34,1.34,0,0,0-1.89,0"/><polygon class="cls-1" points="13.26 15.19 13.26 18.03 14.94 15.19 15.62 15.19 15.62 18.03 17.29 15.19 17.95 15.19 15.75 18.93 15.05 18.93 15.05 16.12 13.39 18.93 12.69 18.93 12.69 15.19 13.26 15.19"/><polygon class="cls-1" points="20.18 15.19 20.18 15.76 18.84 15.76 18.84 16.77 19.87 16.77 19.87 17.34 18.84 17.34 18.84 18.36 20.18 18.36 20.18 18.93 18.27 18.93 18.27 15.19 20.18 15.19"/><path class="cls-1" d="M23.28,18.93h-.65l-.82-1.58h-.64v1.58h-.56V15.19H22a1,1,0,0,1,.76.32,1,1,0,0,1,.32.77,1.06,1.06,0,0,1-.18.6,1.08,1.08,0,0,1-.48.39ZM22,16.79a.51.51,0,0,0,.51-.51.5.5,0,0,0-.15-.37.49.49,0,0,0-.36-.15h-.82v1Z"/><rect class="cls-1" x="23.6" y="15.19" width="0.57" height="3.74"/><polygon class="cls-1" points="27.52 15.19 27.52 18.93 26.92 18.93 25.32 16.26 25.32 18.93 24.75 18.93 24.75 15.19 25.35 15.19 26.95 17.87 26.95 15.19 27.52 15.19"/><path class="cls-1" d="M28.51,18.41A1.91,1.91,0,0,1,30.6,15.3l-.22.52a1.34,1.34,0,1,0-.52,2.58,1.34,1.34,0,0,0,.35,0v-1H29.6v-.57h1.18v2l-.17.07a1.93,1.93,0,0,1-.75.15,1.8,1.8,0,0,1-1.35-.56"/><path class="cls-1" d="M33.55,19a1.49,1.49,0,0,1-.69-.2,1,1,0,0,1-.48-.56l.53-.19a.61.61,0,0,0,.27.28,1.07,1.07,0,0,0,.4.1.77.77,0,0,0,.54-.16.48.48,0,0,0,.19-.33c0-.24-.24-.43-.75-.58q-1.2-.33-1.17-1.14a1,1,0,0,1,.48-.85,1.55,1.55,0,0,1,.85-.19,1.34,1.34,0,0,1,1,.42l-.42.39a.77.77,0,0,0-.57-.24,1,1,0,0,0-.44.07.46.46,0,0,0-.29.43c0,.23.24.42.75.56a1.81,1.81,0,0,1,1,.57.9.9,0,0,1,.19.58,1,1,0,0,1-.41.76,1.3,1.3,0,0,1-.85.28h-.07"/><polygon class="cls-1" points="37.36 15.19 37.36 15.76 36.56 15.76 36.56 18.93 35.99 18.93 35.99 15.76 35.2 15.76 35.2 15.19 37.36 15.19"/><path class="cls-1" d="M40.16,15.19v3.74h-.57v-.87H38.31l-.55.87h-.67l2.37-3.74Zm-1.49,2.3h.92V16.05Z"/><path class="cls-1" d="M43.44,18.93H42.8L42,17.35h-.65v1.58h-.56V15.19h1.38a1,1,0,0,1,.76.32,1,1,0,0,1,.32.77,1.06,1.06,0,0,1-.18.6,1.08,1.08,0,0,1-.48.39Zm-1.29-2.14a.51.51,0,0,0,.51-.51.5.5,0,0,0-.15-.37.49.49,0,0,0-.36-.15h-.82v1Z"/><polygon class="cls-1" points="45.78 15.19 45.78 15.76 44.99 15.76 44.99 18.93 44.42 18.93 44.42 15.76 43.63 15.76 43.63 15.19 45.78 15.19"/><path class="cls-1" d="M46.71,18.58a1.28,1.28,0,0,1-.38-.94V15.19h.56v2.45a.74.74,0,0,0,.23.54.77.77,0,0,0,1.08,0,.77.77,0,0,0,.22-.54V15.19H49v2.45A1.33,1.33,0,0,1,47.66,19a1.31,1.31,0,0,1-.95-.39"/><path class="cls-1" d="M50.21,18.93h-.57V15.19H51a1.07,1.07,0,0,1,.77.32,1.1,1.1,0,0,1,0,1.53,1.06,1.06,0,0,1-.77.31h-.81Zm0-2.14H51a.53.53,0,0,0,.37-.15.48.48,0,0,0,.14-.36.49.49,0,0,0-.14-.37.53.53,0,0,0-.37-.15h-.81Z"/><path class="cls-1" d="M53.56,19a1.53,1.53,0,0,1-.69-.2,1.09,1.09,0,0,1-.48-.56l.54-.19a.52.52,0,0,0,.27.28,1,1,0,0,0,.39.1.77.77,0,0,0,.54-.16.48.48,0,0,0,.19-.33c0-.24-.24-.43-.75-.58q-1.2-.33-1.17-1.14a1,1,0,0,1,.49-.85,1.5,1.5,0,0,1,.84-.19,1.34,1.34,0,0,1,1,.42l-.42.39a.76.76,0,0,0-.57-.24,1,1,0,0,0-.43.07.45.45,0,0,0-.3.43c0,.23.24.42.75.56a1.81,1.81,0,0,1,1,.57.9.9,0,0,1,.19.58,1,1,0,0,1-.41.76,1.3,1.3,0,0,1-.85.28h-.07"/><polygon class="cls-1" points="2.78 4.13 6.2 0.28 9.72 0.28 5.5 4.71 10.14 10.98 6.61 10.98 3.58 6.72 2.78 7.57 2.78 10.98 0 10.98 0 0.28 2.78 0.28 2.78 4.13"/><path class="cls-1" d="M18,9.59h-4.1L13.19,11H10.28L15.88.14h.06L21.54,11H18.63ZM15,7.23H16.8l-.89-1.84Z"/><path class="cls-1" d="M30.44,11H27.67L25.75,7.36H24.66V11H21.89V.28h4.65a3.41,3.41,0,0,1,2.51,1,3.35,3.35,0,0,1,1.05,2.5,3.38,3.38,0,0,1-1.83,3.11ZM24.66,2.64V5h1.46a1.2,1.2,0,0,0,1.2-1.2A1.1,1.1,0,0,0,27,3a1.13,1.13,0,0,0-.85-.35Z"/><path class="cls-1" d="M30.79.28h4.45a2.84,2.84,0,0,1,2.11.8,2.85,2.85,0,0,1,.8,2.12,2.59,2.59,0,0,1-1,2.15,2.68,2.68,0,0,1,1.6,2.57A2.94,2.94,0,0,1,35.65,11H30.79Zm2.78,2.36V4.31h.89c.61,0,.92-.28.92-.84s-.31-.83-.92-.83Zm0,4V8.61h1.28c.72,0,1.08-.32,1.08-1s-.36-1-1.08-1Z"/><path class="cls-1" d="M38.82,5.67a5.41,5.41,0,0,1,1.71-4.14A5.47,5.47,0,0,1,44.45,0a5.42,5.42,0,0,1,4,1.67,5.34,5.34,0,0,1,1.59,3.89,5.34,5.34,0,0,1-1.59,3.89,5.45,5.45,0,0,1-4.07,1.62,5.81,5.81,0,0,1-2.29-.43,5.71,5.71,0,0,1-1.76-1.21A5.16,5.16,0,0,1,38.82,5.7Zm2.78-.11a3.12,3.12,0,0,0,.78,2.08,2.69,2.69,0,0,0,2.1.92,2.6,2.6,0,0,0,2.13-1,3.21,3.21,0,0,0,0-4,2.62,2.62,0,0,0-2.15-1,2.67,2.67,0,0,0-2.12,1,3,3,0,0,0-.74,2Z"/><polygon class="cls-1" points="57.79 0.28 60.57 0.28 60.57 11.07 60.51 11.07 53.34 5.53 53.34 10.98 50.57 10.98 50.57 0.14 50.62 0.14 57.79 5.74 57.79 0.28"/></g></g></svg>