<svg xmlns="http://www.w3.org/2000/svg" viewBox="0 0 76.17 19.14"><defs><style>.cls-1,.cls-3{fill:#020202;}.cls-2{fill:#e80d80;}.cls-3,.cls-4{font-size:17.53px;font-family:ArialRoundedMTBold, Arial Rounded MT Bold;}.cls-4{fill:#eff1f3;}</style></defs><g id="Layer_2" data-name="Layer 2"><g id="Layer_1-2" data-name="Layer 1"><path class="cls-1" d="M32.58,16.62l1.16.89,1.16.9-.07,0-.71.18-.55.14-.72.19-.38.1-.08,0a.13.13,0,0,1-.1,0l-1.38-1.62-.44-.52a.16.16,0,0,0-.12-.06,6.56,6.56,0,0,1-.88-.09,4.5,4.5,0,0,1-1.86-.68,3.78,3.78,0,0,1-1.28-1.52,6.13,6.13,0,0,1-.43-1.27,12.12,12.12,0,0,1-.25-2.76c0-.5,0-1,.1-1.5A6.88,6.88,0,0,1,26,7.82a4.67,4.67,0,0,1,.43-1.09,3.58,3.58,0,0,1,1.76-1.65,5,5,0,0,1,1-.32,8.26,8.26,0,0,1,1.72-.13,6.8,6.8,0,0,1,1.1.09,4.57,4.57,0,0,1,1.68.56,3.57,3.57,0,0,1,1.45,1.6,5.59,5.59,0,0,1,.43,1.27,10.2,10.2,0,0,1,.21,1.47,16.26,16.26,0,0,1,0,1.71,10.69,10.69,0,0,1-.1,1.27c0,.31-.1.62-.18.93a4.72,4.72,0,0,1-.77,1.69,3.38,3.38,0,0,1-1.32,1.08,4.86,4.86,0,0,1-.81.28l-.06,0v0m1-5.88a11.33,11.33,0,0,0-.08-1.66,4.5,4.5,0,0,0-.29-1.19,2,2,0,0,0-.45-.67,2.09,2.09,0,0,0-1.06-.5,4.76,4.76,0,0,0-.84-.07,4.14,4.14,0,0,0-1.26.15,1.81,1.81,0,0,0-1.06.82,3.85,3.85,0,0,0-.41,1.24A7.3,7.3,0,0,0,28,9.8a13.65,13.65,0,0,0,.08,2.71,4.25,4.25,0,0,0,.26,1,2.18,2.18,0,0,0,.47.73,2.14,2.14,0,0,0,1.08.52,4.54,4.54,0,0,0,.82.07A4.11,4.11,0,0,0,32,14.66a1.79,1.79,0,0,0,.73-.42,2.33,2.33,0,0,0,.55-.92,5.48,5.48,0,0,0,.24-1.27,9.69,9.69,0,0,0,.05-1.31"/><path class="cls-1" d="M16.2,8.4s0,0,0,.06c0,.42,0,.85,0,1.28v6.77c0,.12,0,.12-.13.12H14.33c-.07,0-.08,0-.09-.08V4.92c0-.12,0-.12.13-.12h1.68a.18.18,0,0,1,.17.1l1.38,2L20,10.42l1.53,2.25.07.08a.38.38,0,0,1,0-.08c0-.64,0-1.28,0-1.91V4.87s0-.07.07-.07h1.76c.11,0,.11,0,.11.11V16.56c0,.05,0,.07-.07.07H22.11a.19.19,0,0,1-.18-.09l-1.71-2.43-1.83-2.6-1.55-2.2-.57-.86-.05-.06h0"/><path class="cls-1" d="M0,4.8H2.14s.07,0,.06.06v9.63c0,.12,0,.12.12.12h5c.09,0,.09,0,.09.1,0,.61,0,1.22,0,1.83,0,.09,0,.09-.09.09H0Z"/><path class="cls-1" d="M9.24,10.71V4.87c0-.06,0-.07.07-.07h2.07c.08,0,.08,0,.09.08V16.53c0,.09,0,.1-.11.1h-2c-.09,0-.09,0-.09-.09V10.71Z"/><path class="cls-1" d="M32,3l.08,0,1.7-.09.91-.07.93-.06a1,1,0,0,1,.41.07,1.23,1.23,0,0,1,.26.12,1,1,0,0,1,.27.3,1.14,1.14,0,0,1,.13.51c0,.33,0,.65.07,1s0,.64,0,1,.05.65.07,1l0,.62a.13.13,0,0,1-.07-.09l-.09-.29c0-.11-.09-.23-.14-.34s-.17-.34-.26-.51l-.18-.33-.09-.11-.24-.34c-.06-.08-.14-.15-.2-.23A4.11,4.11,0,0,0,35,4.44c-.14-.13-.31-.23-.46-.36a5.14,5.14,0,0,0-.49-.32,1.19,1.19,0,0,0-.25-.13l-.41-.2-.2-.08L33,3.3l-.26-.1-.05,0-.65-.12L32,3V3"/><path class="cls-2" d="M76.17,11.09a7.45,7.45,0,1,1-7.45-7.45,7.45,7.45,0,0,1,7.45,7.45"/><text class="cls-3" transform="translate(38.78 15.15)">pa</text><text class="cls-4" transform="translate(63.33 15.45)">y</text></g></g></svg>