<?xml version="1.0" encoding="utf-8"?>
<!-- Generator: Adobe Illustrator 24.2.3, SVG Export Plug-In . SVG Version: 6.00 Build 0)  -->
<svg version="1.1" id="Layer_1" xmlns="http://www.w3.org/2000/svg" xmlns:xlink="http://www.w3.org/1999/xlink" x="0px" y="0px"
	 viewBox="0 0 117.7 19.1" style="enable-background:new 0 0 117.7 19.1;" xml:space="preserve">
<style type="text/css">
	.st0{clip-path:url(#SVGID_2_);}
	.st1{fill:#0E7AB0;}
	.st2{clip-path:url(#SVGID_4_);}
	.st3{clip-path:url(#SVGID_6_);}
	.st4{clip-path:url(#SVGID_8_);}
	.st5{opacity:0;}
	.st6{clip-path:url(#SVGID_10_);}
	.st7{clip-path:url(#SVGID_12_);}
	.st8{clip-path:url(#SVGID_14_);}
	.st9{clip-path:url(#SVGID_16_);}
	.st10{clip-path:url(#SVGID_18_);}
	.st11{clip-path:url(#SVGID_20_);}
	.st12{clip-path:url(#SVGID_22_);}
	.st13{clip-path:url(#SVGID_24_);}
	.st14{opacity:0.6;}
	.st15{clip-path:url(#SVGID_26_);}
	.st16{fill:#0793C3;}
	.st17{clip-path:url(#SVGID_28_);}
	.st18{fill:#FFFFFF;}
	.st19{clip-path:url(#SVGID_30_);}
	.st20{clip-path:url(#SVGID_32_);}
	.st21{clip-path:url(#SVGID_34_);}
	.st22{clip-path:url(#SVGID_36_);}
	.st23{clip-path:url(#SVGID_38_);}
	.st24{clip-path:url(#SVGID_40_);}
	.st25{clip-path:url(#SVGID_42_);}
	.st26{clip-path:url(#SVGID_44_);}
	.st27{clip-path:url(#SVGID_46_);}
	.st28{fill:#0A6C9C;}
	.st29{clip-path:url(#SVGID_48_);}
	.st30{clip-path:url(#SVGID_50_);}
	.st31{clip-path:url(#SVGID_52_);}
	.st32{clip-path:url(#SVGID_54_);}
</style>
<g id="Layer_2_1_">
	<g id="Layer_1-2">
		<g>
			<g>
				<defs>
					<path id="SVGID_1_" d="M98.6,9.5c0,5.3,4.2,9.5,9.5,9.6s9.5-4.2,9.6-9.5c0-5.3-4.2-9.5-9.5-9.6l0,0C102.9,0,98.6,4.2,98.6,9.5"
						/>
				</defs>
				<clipPath id="SVGID_2_">
					<use xlink:href="#SVGID_1_"  style="overflow:visible;"/>
				</clipPath>
				<g class="st0">
					<rect x="92.2" y="-6.3" class="st1" width="31.7" height="31.6"/>
				</g>
			</g>
		</g>
		<g>
			<g>
				<defs>
					<path id="SVGID_3_" d="M99.1,9.5c-0.1,5,3.9,9,8.9,9.1s9-3.9,9.1-8.9s-3.9-9-8.9-9.1h-0.1C103.2,0.5,99.2,4.5,99.1,9.5"/>
				</defs>
				<clipPath id="SVGID_4_">
					<use xlink:href="#SVGID_3_"  style="overflow:visible;"/>
				</clipPath>
				<g class="st2">
					<g>
						<g>
							<g>
								<defs>
									<rect id="SVGID_5_" x="98.7" width="18.3" height="19"/>
								</defs>
								<clipPath id="SVGID_6_">
									<use xlink:href="#SVGID_5_"  style="overflow:visible;"/>
								</clipPath>
								<g class="st3">
									<g>
										<g>
											<defs>
												<path id="SVGID_7_" d="M99.1,9.5c-0.1,5,3.9,9,8.9,9.1s9-3.9,9.1-8.9s-3.9-9-8.9-9.1h-0.1C103.2,0.5,99.2,4.5,99.1,9.5"
													/>
											</defs>
											<clipPath id="SVGID_8_">
												<use xlink:href="#SVGID_7_"  style="overflow:visible;"/>
											</clipPath>
											<g class="st4">
												<g class="st5">
													<g>
														<g>
															<defs>
																<rect id="SVGID_9_" x="98.7" width="18.3" height="19"/>
															</defs>
															<clipPath id="SVGID_10_">
																<use xlink:href="#SVGID_9_"  style="overflow:visible;"/>
															</clipPath>
															<g class="st6">
																<g>
																	<g>
																		<defs>
																			<rect id="SVGID_11_" x="98.7" width="18.3" height="19"/>
																		</defs>
																		<clipPath id="SVGID_12_">
																			<use xlink:href="#SVGID_11_"  style="overflow:visible;"/>
																		</clipPath>
																		<g class="st7">
																			<g>
																				<g>
																					<defs>
																						<rect id="SVGID_13_" x="98.7" width="18.3" height="19"/>
																					</defs>
																					<clipPath id="SVGID_14_">
																						<use xlink:href="#SVGID_13_"  style="overflow:visible;"/>
																					</clipPath>
																					<g class="st8">
																						<g>
																							<g>
																								<defs>
																									<rect id="SVGID_15_" x="98.7" width="18.3" height="19"/>
																								</defs>
																								<clipPath id="SVGID_16_">
																									<use xlink:href="#SVGID_15_"  style="overflow:visible;"/>
																								</clipPath>
																								<g class="st9">
																									
																										<image style="overflow:visible;enable-background:new    ;" width="79" height="83" xlink:href="679E7EC52C690C5B.png"  transform="matrix(0.2326 0 0 0.2326 98.7134 -0.1714)">
																									</image>
																								</g>
																							</g>
																						</g>
																					</g>
																				</g>
																			</g>
																		</g>
																	</g>
																</g>
															</g>
														</g>
													</g>
												</g>
											</g>
										</g>
									</g>
									<g>
										<g>
											<defs>
												<path id="SVGID_17_" d="M99.1,9.5c-0.1,5,3.9,9,8.9,9.1s9-3.9,9.1-8.9s-3.9-9-8.9-9.1h-0.1C103.2,0.5,99.2,4.5,99.1,9.5
													"/>
											</defs>
											<clipPath id="SVGID_18_">
												<use xlink:href="#SVGID_17_"  style="overflow:visible;"/>
											</clipPath>
											<g class="st10">
												<g>
													<g>
														<defs>
															<rect id="SVGID_19_" x="99.1" y="0.6" width="17.9" height="17.8"/>
														</defs>
														<clipPath id="SVGID_20_">
															<use xlink:href="#SVGID_19_"  style="overflow:visible;"/>
														</clipPath>
														<g class="st11">
															<g>
																<g>
																	<defs>
																		<rect id="SVGID_21_" x="99.1" y="0.6" width="17.9" height="17.8"/>
																	</defs>
																	<clipPath id="SVGID_22_">
																		<use xlink:href="#SVGID_21_"  style="overflow:visible;"/>
																	</clipPath>
																	<g class="st12">
																		
																			<image style="overflow:visible;enable-background:new    ;" width="79" height="79" xlink:href="679E7EC52C690C59.png"  transform="matrix(0.2562 0 0 0.2562 97.8997 -0.64)">
																		</image>
																	</g>
																</g>
															</g>
														</g>
													</g>
												</g>
											</g>
										</g>
									</g>
								</g>
							</g>
						</g>
					</g>
				</g>
			</g>
		</g>
		<g>
			<g>
				<defs>
					<path id="SVGID_23_" d="M100.3,6.5c0,3.1,3.5,5.7,7.7,5.7s7.7-2.5,7.7-5.7s-3.8-5.9-7.7-5.9C104.1,0.6,100.3,3.4,100.3,6.5"/>
				</defs>
				<clipPath id="SVGID_24_">
					<use xlink:href="#SVGID_23_"  style="overflow:visible;"/>
				</clipPath>
				<g class="st13">
					<g class="st14">
						<g>
							<g>
								<defs>
									<rect id="SVGID_25_" x="94" y="-5.7" width="28.1" height="24.2"/>
								</defs>
								<clipPath id="SVGID_26_">
									<use xlink:href="#SVGID_25_"  style="overflow:visible;"/>
								</clipPath>
								<g class="st15">
									<rect x="94" y="-5.7" class="st16" width="28.1" height="24.2"/>
								</g>
							</g>
						</g>
					</g>
				</g>
			</g>
		</g>
		<g>
			<g>
				<defs>
					<path id="SVGID_27_" d="M103.1,9.7c-0.3,0.1-0.5,0.3-0.7,0.5s-0.3,0.5-0.3,0.8s0.1,0.7,0.2,1c0.2,0.5,0.5,0.8,1,1.1
						c0.4,0.2,0.9,0.1,1.3-0.1c0.3-0.1,0.6-0.4,0.7-0.7c0.2-0.3,0.2-0.7,0.1-1.1l-0.6,0.2c0.1,0.2,0.1,0.5,0,0.7s-0.2,0.4-0.4,0.4
						c-0.2,0.1-0.5,0.1-0.8,0c-0.3-0.2-0.6-0.5-0.7-0.8c-0.2-0.3-0.2-0.7-0.2-1c0.1-0.3,0.3-0.5,0.5-0.6s0.4-0.1,0.5,0
						c0.2,0.1,0.4,0.2,0.5,0.4l0.5-0.3c-0.2-0.3-0.5-0.5-0.8-0.6c-0.1,0-0.2,0-0.3,0c-0.2,0-0.5,0.1-0.7,0.2"/>
				</defs>
				<clipPath id="SVGID_28_">
					<use xlink:href="#SVGID_27_"  style="overflow:visible;"/>
				</clipPath>
				<g class="st17">
					<rect x="95.9" y="3.2" class="st18" width="16" height="16.4"/>
				</g>
			</g>
		</g>
		<g>
			<g>
				<defs>
					<path id="SVGID_29_" d="M106.8,11.2c-0.3-0.2-0.6-0.5-0.7-0.8c-0.2-0.3-0.2-0.7-0.2-1c0.1-0.3,0.3-0.5,0.5-0.6
						c0.3-0.1,0.6-0.1,0.8,0c0.3,0.2,0.6,0.4,0.7,0.8c0.2,0.3,0.2,0.7,0.2,1.1c-0.1,0.3-0.3,0.5-0.5,0.6c-0.1,0.1-0.3,0.1-0.4,0.1
						C107,11.3,106.9,11.3,106.8,11.2 M106.2,8.3c-0.4,0.2-0.7,0.5-0.9,0.8c-0.2,0.5-0.2,1.1,0.1,1.6c0.2,0.5,0.5,0.8,1,1.1
						c0.4,0.2,0.9,0.1,1.3-0.1c0.3-0.1,0.5-0.3,0.7-0.6c0.2-0.2,0.3-0.5,0.3-0.8c0-0.4-0.1-0.7-0.3-1.1c-0.2-0.5-0.5-0.8-1-1
						c-0.2-0.1-0.4-0.1-0.6-0.1C106.7,8.1,106.5,8.2,106.2,8.3"/>
				</defs>
				<clipPath id="SVGID_30_">
					<use xlink:href="#SVGID_29_"  style="overflow:visible;"/>
				</clipPath>
				<g class="st19">
					<rect x="98.9" y="1.7" class="st18" width="16.2" height="16.4"/>
				</g>
			</g>
		</g>
		<g>
			<g>
				<defs>
					<path id="SVGID_31_" d="M111.7,5.7c-0.4,0.2-0.7,0.6-0.7,1c-0.1-0.1-0.3-0.2-0.5-0.3c-0.2,0-0.4,0-0.7,0.1
						c-0.4,0.2-0.7,0.6-0.7,1l-0.2-0.4l-0.5,0.2l1.5,3.2l0.6-0.2l-0.8-1.7c-0.1-0.2-0.2-0.5-0.2-0.7s0-0.3,0.1-0.5
						c0.1-0.1,0.2-0.2,0.4-0.3c0.2-0.1,0.4-0.1,0.5,0c0.2,0.1,0.3,0.3,0.4,0.5l1,2.1l0.5-0.2l-0.9-1.9c-0.1-0.3-0.2-0.6-0.1-0.8
						c0.1-0.2,0.2-0.4,0.5-0.5c0.1-0.1,0.2-0.1,0.4-0.1c0.1,0,0.2,0.1,0.3,0.2c0.1,0.1,0.2,0.3,0.3,0.4l0.9,2l0.6-0.2l-1-2.2
						c-0.1-0.3-0.3-0.6-0.6-0.7c-0.1,0-0.2,0-0.3,0C112.2,5.6,112,5.7,111.7,5.7"/>
				</defs>
				<clipPath id="SVGID_32_">
					<use xlink:href="#SVGID_31_"  style="overflow:visible;"/>
				</clipPath>
				<g class="st20">
					<rect x="102.1" y="-0.7" class="st18" width="18.5" height="17.6"/>
				</g>
			</g>
		</g>
		<g>
			<g>
				<defs>
					<path id="SVGID_33_" d="M46.4,13.7c-0.5-0.2-0.9-0.5-1.3-0.8V7.5c0.3-0.5,0.7-0.8,1.2-1.1C46.7,6.1,47.2,6,47.7,6
						c0.7,0,1.4,0.4,1.7,1c0.4,1,0.6,2.1,0.5,3.2c0.1,1-0.1,2-0.6,2.9c-0.3,0.6-1,1-1.7,1C47.3,14,46.8,13.9,46.4,13.7 M42,0.6v0.6
						h0.2c0.7,0,1.1,0.1,1.2,0.3c0.2,0.5,0.2,1,0.2,1.4v11.9h1.3l0.2-1.2h0.1c0.4,0.4,0.8,0.8,1.3,1s1,0.3,1.5,0.3
						c1.1,0,2.2-0.5,2.8-1.5c0.7-1.2,1.1-2.5,1-3.9C51.9,8.3,51.5,7,50.9,6c-0.5-0.8-1.5-1.3-2.5-1.3c-0.6,0-1.3,0.2-1.8,0.5
						c-0.6,0.4-1.1,0.9-1.4,1.5V0.6H42z"/>
				</defs>
				<clipPath id="SVGID_34_">
					<use xlink:href="#SVGID_33_"  style="overflow:visible;"/>
				</clipPath>
				<g class="st21">
					<rect x="35.6" y="-5.7" width="22.5" height="27"/>
				</g>
			</g>
		</g>
		<g>
			<g>
				<defs>
					<path id="SVGID_35_" d="M54.5,13.4C54.2,13,54,12.5,54,12c0-0.7,0.3-1.4,0.8-1.8c0.7-0.5,1.5-0.7,2.3-0.6h0.4v3.7
						C57,13.7,56.4,14,55.8,14C55.3,14,54.8,13.8,54.5,13.4 M52.9,5.6v1.8H54V7.2c0-0.5,0.2-0.9,0.5-1.2c0.4-0.3,0.9-0.5,1.3-0.5
						c1.1,0,1.6,0.8,1.6,2.3V9h-0.3c-1.4-0.1-2.7,0.2-3.9,1c-0.7,0.6-1,1.4-1,2.2c0,0.7,0.2,1.5,0.8,2c0.5,0.5,1.2,0.8,2,0.8
						c1.1-0.1,2.2-0.7,2.9-1.6c0.2,1,0.7,1.6,1.5,1.6c0.4,0,0.7-0.1,1.1-0.2v-0.7c-0.1,0-0.3,0.1-0.4,0.1c-0.3,0-0.6-0.2-0.7-0.5
						c-0.2-0.5-0.2-1.1-0.2-1.6V7.7c0-1.9-1-2.9-3-2.9C55.1,4.8,54,5.1,52.9,5.6"/>
				</defs>
				<clipPath id="SVGID_36_">
					<use xlink:href="#SVGID_35_"  style="overflow:visible;"/>
				</clipPath>
				<g class="st22">
					<rect x="45.9" y="-1.5" width="20.9" height="22.8"/>
				</g>
			</g>
		</g>
		<g>
			<g>
				<defs>
					<path id="SVGID_37_" d="M62.1,5v2.1H63V7c0-0.2,0-0.4,0-0.7c0-0.4,0.1-0.6,0.2-0.7c0.5-0.1,1-0.1,1.5-0.1h3l-5.8,8.7v0.6h8
						v-0.7h-6l5.8-8.6V5H62.1z"/>
				</defs>
				<clipPath id="SVGID_38_">
					<use xlink:href="#SVGID_37_"  style="overflow:visible;"/>
				</clipPath>
				<g class="st23">
					<rect x="55.5" y="-1.3" width="20.6" height="22.4"/>
				</g>
			</g>
		</g>
		<g>
			<g>
				<defs>
					<path id="SVGID_39_" d="M72.8,13.4c-0.3-0.4-0.5-0.9-0.5-1.4c0-0.7,0.3-1.4,0.8-1.8c0.7-0.5,1.5-0.7,2.3-0.6h0.4v3.7
						c-0.5,0.4-1.1,0.7-1.7,0.7C73.6,13.9,73.1,13.7,72.8,13.4 M71.2,5.6v1.8h1.1V7.2c0-0.5,0.2-0.9,0.4-1.2
						c0.4-0.3,0.9-0.5,1.3-0.5c1.1,0,1.6,0.8,1.6,2.3V9h-0.3c-1.4-0.1-2.8,0.2-3.9,1c-0.7,0.6-1,1.4-1,2.2c0,0.7,0.2,1.5,0.8,2
						c0.5,0.5,1.2,0.8,1.9,0.8c1.2-0.1,2.2-0.7,2.9-1.6c0.2,1,0.7,1.6,1.6,1.6c0.4,0,0.7-0.1,1.1-0.2v-0.7c-0.1,0-0.3,0.1-0.4,0.1
						c-0.3,0-0.6-0.2-0.7-0.5c-0.2-0.5-0.2-1.1-0.2-1.6V7.7c0-1.9-1-2.9-3-2.9C73.4,4.8,72.3,5.1,71.2,5.6"/>
				</defs>
				<clipPath id="SVGID_40_">
					<use xlink:href="#SVGID_39_"  style="overflow:visible;"/>
				</clipPath>
				<g class="st24">
					<rect x="64.2" y="-1.5" width="20.9" height="22.8"/>
				</g>
			</g>
		</g>
		<g>
			<g>
				<defs>
					<path id="SVGID_41_" d="M82.2,13.4c-0.3-0.4-0.5-0.9-0.5-1.4c0-0.7,0.3-1.4,0.8-1.8c0.7-0.5,1.5-0.7,2.3-0.6h0.4v3.7
						c-0.5,0.4-1.1,0.7-1.7,0.7C83,13.9,82.5,13.7,82.2,13.4 M80.6,5.6v1.8h1.1V7.2c0-0.5,0.2-0.9,0.4-1.2c0.4-0.3,0.9-0.5,1.3-0.5
						c1.1,0,1.6,0.8,1.6,2.3V9h-0.3c-1.4-0.1-2.8,0.2-3.9,1c-0.7,0.6-1,1.4-1,2.2c0,0.7,0.2,1.5,0.8,2c0.5,0.5,1.2,0.8,1.9,0.8
						c1.2-0.1,2.2-0.7,2.9-1.6c0.2,1,0.7,1.6,1.6,1.6c0.4,0,0.7-0.1,1.1-0.2v-0.7c-0.1,0-0.3,0.1-0.4,0.1c-0.3,0-0.6-0.2-0.7-0.5
						c-0.2-0.5-0.2-1.1-0.2-1.6V7.7c0-1.9-1-2.9-3-2.9C82.7,4.8,81.6,5.1,80.6,5.6"/>
				</defs>
				<clipPath id="SVGID_42_">
					<use xlink:href="#SVGID_41_"  style="overflow:visible;"/>
				</clipPath>
				<g class="st25">
					<rect x="73.6" y="-1.5" width="20.9" height="22.8"/>
				</g>
			</g>
		</g>
		<g>
			<g>
				<defs>
					<path id="SVGID_43_" d="M92,6.8V5h-3.3v0.6h0.2c0.7,0.1,1.1,0.2,1.2,0.3c0.2,0.5,0.2,1,0.2,1.4v5.1c0.1,0.5,0,1-0.2,1.4
						c-0.1,0.2-0.5,0.3-1.2,0.3h-0.2v0.6h5v-0.6h-0.4c-0.7,0-1.1-0.1-1.2-0.3c-0.2-0.5-0.2-1-0.2-1.5V7.7c0.3-0.8,1.1-1.4,2-1.4
						c0.2,0,0.3,0,0.4,0.2c0.1,0.3,0.2,0.7,0.2,1v0.2h0.9V4.9c-0.2-0.1-0.4-0.1-0.6-0.1C93.6,4.8,92.4,5.6,92,6.8"/>
				</defs>
				<clipPath id="SVGID_44_">
					<use xlink:href="#SVGID_43_"  style="overflow:visible;"/>
				</clipPath>
				<g class="st26">
					<rect x="82.4" y="-1.5" width="19.4" height="22.7"/>
				</g>
			</g>
		</g>
		<g>
			<g>
				<defs>
					<path id="SVGID_45_" d="M4.4,13.8C4,13.6,3.6,13.3,3.2,13V7.5C3.5,7,3.9,6.6,4.3,6.3C4.7,6,5.2,5.9,5.6,5.9
						C6.4,5.9,7,6.4,7.3,7c0.4,1,0.6,2,0.5,3.1c0.1,1-0.1,2-0.5,2.9c-0.3,0.6-0.9,1-1.6,1C5.2,14,4.8,13.9,4.4,13.8 M4.6,5.3
						C4,5.7,3.5,6.2,3.2,6.9V5H0v0.6h0.2c0.7,0.1,1.1,0.2,1.2,0.3c0.2,0.5,0.2,1,0.2,1.4v11h1.7v-4.6c0.3,0.4,0.7,0.8,1.2,1
						C4.9,14.9,5.4,15,5.8,15c1.1,0,2.1-0.5,2.7-1.5c0.7-1.2,1.1-2.5,1-3.9c0.1-1.2-0.2-2.4-0.9-3.5C8.2,5.3,7.3,4.8,6.3,4.8
						C5.7,4.8,5.1,5,4.6,5.3"/>
				</defs>
				<clipPath id="SVGID_46_">
					<use xlink:href="#SVGID_45_"  style="overflow:visible;"/>
				</clipPath>
				<g class="st27">
					<rect x="-6.3" y="-1.5" class="st28" width="22.2" height="26.2"/>
				</g>
			</g>
		</g>
		<g>
			<g>
				<defs>
					<path id="SVGID_47_" d="M12.9,13.4c-0.3-0.4-0.5-0.9-0.5-1.4c0-0.7,0.3-1.4,0.8-1.8c0.7-0.5,1.5-0.7,2.3-0.6h0.4v3.7
						c-0.5,0.4-1.1,0.7-1.7,0.7C13.7,13.9,13.2,13.7,12.9,13.4 M11.3,5.6v1.8h1.1V7.2c0-0.5,0.2-0.9,0.4-1.2
						c0.4-0.3,0.9-0.5,1.4-0.5c1.1,0,1.6,0.8,1.6,2.3V9h-0.3c-1.4-0.1-2.8,0.2-3.9,1c-0.7,0.6-1,1.4-1,2.2c0,0.7,0.3,1.5,0.8,2
						s1.2,0.8,1.9,0.8c1.1-0.1,2.2-0.7,2.9-1.6c0.2,1,0.7,1.6,1.5,1.6c0.4,0,0.7-0.1,1.1-0.2v-0.7c-0.1,0-0.3,0.1-0.5,0.1
						c-0.3,0-0.6-0.2-0.7-0.5c-0.2-0.5-0.2-1.1-0.2-1.6V7.7c0-1.9-1-2.9-3-2.9C13.4,4.8,12.3,5.1,11.3,5.6"/>
				</defs>
				<clipPath id="SVGID_48_">
					<use xlink:href="#SVGID_47_"  style="overflow:visible;"/>
				</clipPath>
				<g class="st29">
					<rect x="4.3" y="-1.5" class="st28" width="20.9" height="22.8"/>
				</g>
			</g>
		</g>
		<g>
			<g>
				<defs>
					<path id="SVGID_49_" d="M19.5,5v0.6h0.2c0.7,0,1,0.1,1.1,0.3S21,6.5,21,7.3v7.5h1.8L22.7,5H19.5z"/>
				</defs>
				<clipPath id="SVGID_50_">
					<use xlink:href="#SVGID_49_"  style="overflow:visible;"/>
				</clipPath>
				<g class="st30">
					<rect x="13.1" y="-1.3" class="st28" width="15.9" height="22.4"/>
				</g>
			</g>
		</g>
		<rect x="21" y="1.5" class="st28" width="1.7" height="1.8"/>
		<g>
			<g>
				<defs>
					<path id="SVGID_51_" d="M25.6,5.5c-0.6,0.5-1,1.2-1,2c0,0.6,0.2,1.2,0.7,1.7c0.6,0.6,1.3,1,2.1,1.3l0.9,0.4
						c0.5,0.2,0.9,0.4,1.2,0.7c0.2,0.3,0.4,0.7,0.3,1.1c0,0.5-0.2,0.9-0.5,1.3c-0.4,0.3-0.8,0.5-1.3,0.5c-0.6,0-1.3-0.2-1.8-0.5
						c-0.7-0.6-1.2-1.2-1.6-2v1.5c0.8,1,2.1,1.6,3.4,1.6c1,0,1.9-0.2,2.7-0.8c0.7-0.5,1-1.3,1-2.1c0-0.6-0.2-1.1-0.5-1.5
						c-0.5-0.5-1.2-0.9-1.9-1.1L28.4,9c-0.6-0.2-1.2-0.5-1.7-0.9c-0.3-0.3-0.4-0.6-0.4-1c0-0.5,0.2-0.9,0.5-1.3
						c0.3-0.3,0.8-0.5,1.3-0.5s1,0.1,1.4,0.4c0.1,0.1,0.3,0.3,0.3,0.5C29.9,6.7,30,7.1,30,7.5v0.2h1V5.3c-1-0.4-2-0.6-3-0.6
						C27.1,4.7,26.3,5,25.6,5.5"/>
				</defs>
				<clipPath id="SVGID_52_">
					<use xlink:href="#SVGID_51_"  style="overflow:visible;"/>
				</clipPath>
				<g class="st31">
					<rect x="18.3" y="-1.6" class="st28" width="19.7" height="22.8"/>
				</g>
			</g>
		</g>
		<g>
			<g>
				<defs>
					<path id="SVGID_53_" d="M35.2,13.4c-0.3-0.4-0.5-0.9-0.5-1.4c0-0.7,0.3-1.4,0.8-1.8c0.7-0.5,1.5-0.7,2.3-0.6h0.4v3.7
						c-0.5,0.4-1.1,0.7-1.7,0.7C36,13.9,35.5,13.7,35.2,13.4 M33.6,5.6v1.8h1.1V7.2c0-0.5,0.2-0.9,0.4-1.2c0.4-0.3,0.9-0.5,1.3-0.5
						c1.1,0,1.6,0.8,1.6,2.3V9h-0.3c-1.4-0.1-2.8,0.2-3.9,1c-0.7,0.6-1,1.4-1,2.2c0,0.7,0.3,1.5,0.8,2s1.2,0.8,1.9,0.8
						c1.1-0.1,2.2-0.7,2.9-1.6c0.2,1,0.7,1.6,1.5,1.6c0.4,0,0.7-0.1,1.1-0.2v-0.7c-0.1,0-0.3,0.1-0.5,0.1c-0.3,0-0.6-0.2-0.7-0.5
						c-0.1-0.5-0.2-1.1-0.2-1.6V7.7c0-1.9-1-2.9-3-2.9C35.8,4.8,34.7,5.1,33.6,5.6"/>
				</defs>
				<clipPath id="SVGID_54_">
					<use xlink:href="#SVGID_53_"  style="overflow:visible;"/>
				</clipPath>
				<g class="st32">
					<rect x="26.6" y="-1.5" class="st28" width="20.9" height="22.8"/>
				</g>
			</g>
		</g>
	</g>
</g>
</svg>
