<svg xmlns="http://www.w3.org/2000/svg" viewBox="0 0 267 54.52"><defs><style>.cls-1{fill:#f26e21;}.cls-1,.cls-2,.cls-3{fill-rule:evenodd;}.cls-2{fill:#fff;}.cls-3{fill:#548bc8;}</style></defs><g id="Layer_2" data-name="Layer 2"><g id="Layer_1-2" data-name="Layer 1"><g id="RazorpayX_logo" data-name="RazorpayX logo"><path class="cls-1" d="M232.64,10.61l8.23,10.6-5.22,6.07-13-16.67Z"/><path class="cls-2" d="M60.11,22q1.13-4.14-.94-6.36T51.94,13.4H38.72l-8,29.25h6.42l3.21-11.79H44.6a4.61,4.61,0,0,1,2.23.45,2,2,0,0,1,1,1.6l1.14,9.74h6.88l-1.11-9.08q-.35-3-2.83-3.58a12.2,12.2,0,0,0,5.3-3A11,11,0,0,0,60.11,22ZM54,22.16a4.64,4.64,0,0,1-2.08,2.89,8.43,8.43,0,0,1-4.34.93H41.63l2.08-7.65h5.92c1.87,0,3.14.31,3.84.93S54.33,20.84,54,22.16Z"/><path class="cls-2" d="M78.54,21.82l-.81,3a4.68,4.68,0,0,0-2-2.55A6.84,6.84,0,0,0,72,21.29a10.63,10.63,0,0,0-5.21,1.37,13.62,13.62,0,0,0-4.37,3.89,16.75,16.75,0,0,0-2.74,5.7,12,12,0,0,0-.35,5.65,6.11,6.11,0,0,0,2.27,3.76A7.28,7.28,0,0,0,66.11,43a10.15,10.15,0,0,0,4.21-.91,9.85,9.85,0,0,0,3.39-2.5l-.84,3.08h6.21l5.67-20.83ZM75.72,32.17a9.36,9.36,0,0,1-2.48,4.52,5.66,5.66,0,0,1-4,1.56A3.36,3.36,0,0,1,66,36.7c-.57-1-.59-2.51-.06-4.45a9.52,9.52,0,0,1,2.54-4.56,5.71,5.71,0,0,1,4.07-1.64,3.21,3.21,0,0,1,3.16,1.58C76.25,28.68,76.26,30.19,75.72,32.17Z"/><path class="cls-2" d="M107.08,21.81H89l-1.26,4.65H98.27L84.37,38.29l-1.18,4.35h18.64L103.09,38H91.83l14.11-12Z"/><path class="cls-2" d="M126.62,22.6a10.43,10.43,0,0,0-5.49-1.31,15,15,0,0,0-6.25,1.31A13.65,13.65,0,0,0,110,26.38a15.27,15.27,0,0,0-2.92,5.75,10.75,10.75,0,0,0-.21,5.75,6.2,6.2,0,0,0,2.85,3.78A10.53,10.53,0,0,0,115.24,43a14.6,14.6,0,0,0,6.19-1.32,13.5,13.5,0,0,0,4.88-3.78,15.13,15.13,0,0,0,2.92-5.75,10.75,10.75,0,0,0,.21-5.75A6.25,6.25,0,0,0,126.62,22.6ZM123,32.14a9.63,9.63,0,0,1-2.48,4.6,5.69,5.69,0,0,1-4,1.52q-4.89,0-3.22-6.12a9.5,9.5,0,0,1,2.5-4.58,5.73,5.73,0,0,1,4-1.54A3.21,3.21,0,0,1,123,27.56Q123.81,29.09,123,32.14Z"/><path class="cls-2" d="M194.41,21.82l-.8,3a4.65,4.65,0,0,0-2-2.55,6.8,6.8,0,0,0-3.7-.94,10.6,10.6,0,0,0-5.21,1.37,13.77,13.77,0,0,0-4.38,3.89,16.93,16.93,0,0,0-2.74,5.7,12,12,0,0,0-.34,5.65,6,6,0,0,0,2.27,3.76A7.24,7.24,0,0,0,182,43a10.19,10.19,0,0,0,4.21-.91,9.72,9.72,0,0,0,3.39-2.5l-.84,3.08H195l5.67-20.83ZM191.6,32.17a9.39,9.39,0,0,1-2.48,4.52,5.68,5.68,0,0,1-4,1.56,3.38,3.38,0,0,1-3.23-1.54q-.85-1.55-.06-4.46a9.56,9.56,0,0,1,2.53-4.56,5.73,5.73,0,0,1,4.08-1.64,3.2,3.2,0,0,1,3.15,1.58C192.13,28.68,192.14,30.2,191.6,32.17Z"/><path class="cls-2" d="M148.77,27.41l1.58-5.67a4.66,4.66,0,0,0-2.14-.41,8.62,8.62,0,0,0-4.1,1.05,8.84,8.84,0,0,0-2.9,2.49l.82-3.05h-6.21l-5.71,20.83h6.3l3-10.89A6.91,6.91,0,0,1,141.69,28a6.5,6.5,0,0,1,4.18-1.33A6.21,6.21,0,0,1,148.77,27.41Z"/><path class="cls-2" d="M170.69,22.66a7,7,0,0,0-4.46-1.37,10,10,0,0,0-4.52,1.06,9.41,9.41,0,0,0-3.49,2.92l0-.14,1.06-3.31h-6.15l-1.56,5.76a1.33,1.33,0,0,0-.05.19l-6.46,23.75h6.3l3.25-12a4.29,4.29,0,0,0,2,2.5,7.17,7.17,0,0,0,3.72.9,11,11,0,0,0,5.24-1.31,13,13,0,0,0,4.31-3.76,16.55,16.55,0,0,0,2.71-5.65,12.38,12.38,0,0,0,.36-5.71A6.34,6.34,0,0,0,170.69,22.66Zm-4.39,9.59a9.17,9.17,0,0,1-2.46,4.45,5.71,5.71,0,0,1-4,1.55,3.28,3.28,0,0,1-3.18-1.56c-.57-1-.58-2.55,0-4.52a9.32,9.32,0,0,1,2.5-4.54,5.72,5.72,0,0,1,4-1.58,3.15,3.15,0,0,1,3.12,1.64A6.47,6.47,0,0,1,166.3,32.25Z"/><path class="cls-2" d="M226.7,21.82h-6.13l-1,1.39c-.08.11-.16.21-.24.33l-.11.16-8,11-1.67-12.93h-6.59l3.34,19.65-7.37,10.06h6.56l1.79-2.5.15-.21,2.09-2.91.06-.08,9.32-13,7.86-11Z"/><path class="cls-3" d="M14.58,16.75l-1.89,6.83,10.79-6.87L16.42,42.64h7.17L34,4.35Z"/><path class="cls-2" d="M3,31.75,0,42.65H14.68l6-22.17Z"/><path class="cls-2" d="M257,0,222.62,43.92h9.11L265.47,0Z"/><path class="cls-2" d="M238.43,31.19l17.92,23.33H267L241.55,22Z"/></g></g></g></svg>