<svg xmlns="http://www.w3.org/2000/svg" xmlns:xlink="http://www.w3.org/1999/xlink" viewBox="0 0 57.6 16.44"><defs><style>.cls-1{fill:none;}.cls-2{opacity:1;}.cls-3{clip-path:url(#clip-path);}.cls-4{fill:#9c8d6b;}</style><clipPath id="clip-path" transform="translate(0 0)"><rect class="cls-1" width="57.6" height="16.45"/></clipPath></defs><g id="Layer_2" data-name="Layer 2"><g id="Layer_1-2" data-name="Layer 1"><g class="cls-3"><polygon class="cls-4" points="0 0.28 0.68 0.28 0.68 6.1 7.4 0.28 8.24 0.28 0.97 6.61 10.11 16.17 9.18 16.17 0.7 7.33 0.7 16.17 0 16.17 0 0.28"/><path class="cls-4" d="M13.89,14a8.09,8.09,0,0,1-2.4-5.8,7.83,7.83,0,0,1,2.43-5.74A8,8,0,0,1,19.77,0,7.94,7.94,0,0,1,25.6,2.42,7.85,7.85,0,0,1,28,8.17,8.07,8.07,0,0,1,25.62,14a7.71,7.71,0,0,1-5.72,2.46h-.32A7.68,7.68,0,0,1,13.89,14M27.32,8.21A7.34,7.34,0,0,0,25.1,2.85,7.23,7.23,0,0,0,19.76.61a7.28,7.28,0,0,0-5.35,2.24,7.34,7.34,0,0,0-2.22,5.36,7.35,7.35,0,0,0,2.22,5.37,7.46,7.46,0,0,0,10.68,0,7.32,7.32,0,0,0,2.23-5.37" transform="translate(0 0)"/><path class="cls-4" d="M30.56.28h.68A7.48,7.48,0,0,1,37,2.62a7.91,7.91,0,0,1,2.18,5.61A7.93,7.93,0,0,1,37,13.84a7.5,7.5,0,0,1-5.75,2.33h-.68Zm.85.63h-.17v14.6h.17a6.59,6.59,0,0,0,5.07-2.14,7.29,7.29,0,0,0,2-5.14,7.37,7.37,0,0,0-2-5.16A6.57,6.57,0,0,0,31.41.91" transform="translate(0 0)"/><path class="cls-4" d="M43.48,14a8.06,8.06,0,0,1-2.41-5.8,7.8,7.8,0,0,1,2.44-5.74,8.23,8.23,0,0,1,11.67,0A7.81,7.81,0,0,1,57.6,8.17,8.1,8.1,0,0,1,55.21,14a7.73,7.73,0,0,1-5.73,2.46h-.31A7.66,7.66,0,0,1,43.48,14M56.9,8.21a7.37,7.37,0,0,0-2.21-5.36A7.5,7.5,0,0,0,44,2.85a7.31,7.31,0,0,0-2.23,5.36A7.32,7.32,0,0,0,44,13.58a7.46,7.46,0,0,0,10.68,0A7.35,7.35,0,0,0,56.9,8.21" transform="translate(0 0)"/></g></g></g></svg>