<svg xmlns="http://www.w3.org/2000/svg" viewBox="0 0 239.21 34.79"><defs><style>.cls-1{fill:#1e3769;}.cls-2{fill:#d1a249;}</style></defs><g id="Layer_2" data-name="Layer 2"><g id="Layer_1-2" data-name="Layer 1"><polygon class="cls-1" points="10.87 34.79 6.52 30.44 6.52 4.35 10.87 0 10.87 34.79"/><polygon class="cls-1" points="4.35 28.27 0 23.92 0 10.87 4.35 6.52 4.35 28.27"/><path class="cls-1" d="M55.73,16.6a4.22,4.22,0,0,0,1.35-3.36c0-3.07-2-4.56-6.13-4.56H43V26.06h8.79c4.33,0,6.72-1.9,6.72-5.36a4.14,4.14,0,0,0-2.76-4.1m-4.49-1H46V11.5h5c2.69,0,2.92.93,2.92,1.89,0,1.52-.86,2.23-2.72,2.23M46,18.44h5.48c3.4,0,3.85,1.16,3.85,2.29,0,1.78-1.12,2.51-3.88,2.51H46Z"/><path class="cls-1" d="M82.58,25.41h0A152.57,152.57,0,0,0,81.13,9.23l-.08-.55H78.31l-6.11,11-6.15-11H63.3l-.07.55a149.53,149.53,0,0,0-1.45,16.18l0,.66h3l0-.62c.1-3.77.42-8.11.83-11.54l5.64,9.83h1.89l5.61-9.82c.42,3.43.73,7.77.83,11.53l0,.62h3Z"/><path class="cls-1" d="M34.77,16.13,32,15.53c-2.15-.45-2.87-1-2.87-2.13s1.44-2,3.85-2a11.58,11.58,0,0,1,4.35.95l2-1.91-.37-.22A11.59,11.59,0,0,0,33,8.69c-4.18,0-6.88,1.87-6.88,4.76,0,2.53,1.65,4.09,5.06,4.76l2.92.62c2.7.56,2.7,1.65,2.7,2.11,0,1.5-1.53,2.39-4.09,2.39a11.34,11.34,0,0,1-5.34-1.47l-1.95,1.87.31.22a12.69,12.69,0,0,0,7.15,2.1c4.3,0,6.87-1.94,6.87-5.2,0-2.55-1.54-4-5-4.72"/><polygon class="cls-2" points="13.05 28.27 17.39 23.92 17.39 10.87 13.05 6.52 13.05 28.27"/><path class="cls-2" d="M93.29,31.77V15.44H95c0,.09.12.91.15,1h.19a4.49,4.49,0,0,1,3-1.2c3.08,0,5.21,2.35,5.21,5.88S101.36,27,98.31,27a4.87,4.87,0,0,1-2.83-.82v5.58Zm2.19-13.5v6.1a4.48,4.48,0,0,0,2.61.94c1.92,0,3.19-1.68,3.19-4.18S100,17,98.07,17A3.16,3.16,0,0,0,95.48,18.27Z"/><path class="cls-2" d="M113.19,17.72A6.57,6.57,0,0,0,111,17.1a3.37,3.37,0,0,0-2.5,1.44v8.28H106.3V15.44H108c.07.41.1.79.14,1.18h.22a4.32,4.32,0,0,1,3-1.37,7,7,0,0,1,2.4.48Z"/><path class="cls-2" d="M116.79,13.64a1.2,1.2,0,1,1,1.27-1.2A1.16,1.16,0,0,1,116.79,13.64Zm-1.13,13.18V15.44h2.18V26.82Z"/><path class="cls-2" d="M128.33,15.44h2.28c-.5,1.3-3.79,10.08-4.27,11.38H124.2L120,15.44h2.26l3,8.76h.19Z"/><path class="cls-2" d="M139.92,25.4h-.19A4.06,4.06,0,0,1,136.35,27c-3,0-4.92-2.33-4.92-5.88s2.23-5.88,5.08-5.88a6.07,6.07,0,0,1,3.41,1l.15-.84h1.61v6.79a26.54,26.54,0,0,0,.48,4.59h-1.95Zm-3-8.45c-1.92,0-3.19,1.71-3.19,4.2s1.18,4.16,3,4.16a2.94,2.94,0,0,0,2.78-2.21V17.94A4.71,4.71,0,0,0,136.87,17Z"/><path class="cls-2" d="M152.07,26.46a10.94,10.94,0,0,1-3.34.55c-2.21,0-3.41-1-3.41-3.17V17.05h-1.25V15.44h1.25V13.66l2.18-.84v2.62h3.13v1.61H147.5V23.6c0,1,.61,1.59,1.83,1.59a6.68,6.68,0,0,0,2.26-.46Z"/><path class="cls-2" d="M162,24.42l.48,1.63a11.53,11.53,0,0,1-4.34,1c-3.1,0-5.57-2-5.57-5.88s2.45-5.88,5.54-5.88,4.71,1.92,4.71,4.92c0,.48,0,1,0,1.46h-8c.11,2.31,1.51,3.73,3.41,3.73A9.27,9.27,0,0,0,162,24.42Zm-7.2-4.23h5.93c0-.12,0-.26,0-.38a2.66,2.66,0,0,0-2.66-2.93C156.26,16.88,155,18.2,154.8,20.19Z"/><path class="cls-2" d="M186.1,15.44,183,26.82h-2.35s-2.59-7.88-2.76-8.67h-.17c-.15.79-2.71,8.67-2.71,8.67h-2.36l-3.09-11.38h2.23l2.06,8.79H174l2.76-8.79h2.07l2.76,8.79h.17l2.06-8.79Z"/><path class="cls-2" d="M196.82,24.42l.48,1.63A11.53,11.53,0,0,1,193,27c-3.1,0-5.57-2-5.57-5.88s2.45-5.88,5.54-5.88,4.71,1.92,4.71,4.92c0,.48,0,1,0,1.46h-8c.12,2.31,1.51,3.73,3.41,3.73A9.27,9.27,0,0,0,196.82,24.42Zm-7.2-4.23h5.93c0-.12,0-.26,0-.38a2.66,2.66,0,0,0-2.66-2.93C191.09,16.88,189.86,18.2,189.62,20.19Z"/><path class="cls-2" d="M208.13,25.4h-.2A4.06,4.06,0,0,1,204.55,27c-3,0-4.92-2.33-4.92-5.88s2.23-5.88,5.09-5.88a6.1,6.1,0,0,1,3.41,1l.14-.84h1.61v6.79a26.54,26.54,0,0,0,.48,4.59h-2Zm-3-8.45c-1.92,0-3.2,1.71-3.2,4.2s1.18,4.16,3,4.16a2.94,2.94,0,0,0,2.78-2.21V17.94A4.65,4.65,0,0,0,205.08,17Z"/><path class="cls-2" d="M219,26.7a9.49,9.49,0,0,1-2.3.31c-2.11,0-3.29-1-3.29-3.14V10.49h2.18V23.63a1.4,1.4,0,0,0,1.57,1.6,5.25,5.25,0,0,0,1.36-.21Z"/><path class="cls-2" d="M227.73,26.46a10.84,10.84,0,0,1-3.34.55c-2.2,0-3.4-1-3.4-3.17V17.05h-1.25V15.44H221V13.66l2.18-.84v2.62h3.12v1.61h-3.12V23.6c0,1,.6,1.59,1.83,1.59a6.62,6.62,0,0,0,2.25-.46Z"/><path class="cls-2" d="M239.21,19.11v7.71H237V19.3c0-1.41-.58-2.35-2.42-2.35A3.44,3.44,0,0,0,232,18.3v8.52h-2.19V10.49H232v6a4.69,4.69,0,0,1,3.14-1.29C237.79,15.25,239.21,16.66,239.21,19.11Z"/></g></g></svg>