<svg xmlns="http://www.w3.org/2000/svg" viewBox="0 0 267 94.77"><defs><style>.cls-1{fill:#fff;}</style></defs><g id="Layer_2" data-name="Layer 2"><g id="Layer_1-2" data-name="Layer 1"><path class="cls-1" d="M13.16,91.74q-6.71-3-9.87-7.1C1.05,82,0,79.77,0,77.79a2.43,2.43,0,0,1,.92-2.1,2.68,2.68,0,0,1,2-.79H13.69a2.44,2.44,0,0,1,1.84,1c.4.39,1.45,1.18,3,2.5a14.93,14.93,0,0,0,5.26,3,17.1,17.1,0,0,0,6.45,1.18,15.34,15.34,0,0,0,8.56-2.1,6.33,6.33,0,0,0,3.29-5.8,6.92,6.92,0,0,0-1.45-4.34,15.3,15.3,0,0,0-5.39-3c-2.64-.92-6.59-1.84-11.72-3-7.5-1.58-12.9-4-16.45-7.24a16.67,16.67,0,0,1-5.4-12.9,17.62,17.62,0,0,1,3.16-10,23.44,23.44,0,0,1,9.48-7.63c4.08-2,9.08-2.9,14.87-2.9a39.12,39.12,0,0,1,15.4,2.77c4.35,2,7.64,4.21,9.87,6.84s3.29,5,3.29,7a2.65,2.65,0,0,1-.79,2,2.77,2.77,0,0,1-2.1.92H45a2.82,2.82,0,0,1-2.24-1.05,28.07,28.07,0,0,1-2.9-2.5,16.28,16.28,0,0,0-4.6-2.76,16.63,16.63,0,0,0-6.06-1.06c-3.29,0-5.79.66-7.5,2.11a7,7,0,0,0-2.63,5.53,5.75,5.75,0,0,0,1.31,4c.79,1,2.5,2,5,2.89a70.43,70.43,0,0,0,11.46,2.9c15.79,3,23.69,10,23.69,20.66a17.74,17.74,0,0,1-8,15.14c-5.4,3.82-13,5.79-22.64,5.79C23.17,94.77,17.64,93.72,13.16,91.74Z"/><path class="cls-1" d="M72.06,92.53a2.85,2.85,0,0,1-.92-2.23V3.16A3.17,3.17,0,0,1,72.06.79,3.32,3.32,0,0,1,74.3,0H85.36a3.66,3.66,0,0,1,2.37.79,3.72,3.72,0,0,1,.79,2.37V90.3a3.32,3.32,0,0,1-.79,2.23,3.18,3.18,0,0,1-2.37.93H74.3A2.9,2.9,0,0,1,72.06,92.53Z"/><path class="cls-1" d="M101.48,92.53a2.85,2.85,0,0,1-.92-2.23V30.41a3.14,3.14,0,0,1,.92-2.37,3.32,3.32,0,0,1,2.24-.79h11.19a3.14,3.14,0,0,1,3.16,3.16V90.3a3.16,3.16,0,0,1-3.16,3.16H103.72A2.9,2.9,0,0,1,101.48,92.53Z"/><path class="cls-1" d="M138.17,86.74C132.38,81.35,129.35,74,129,64.5l-.13-5.27L129,54c.4-9.48,3.43-16.85,9.22-22.25s13.42-8,23-8c7,0,12.77,1.19,17.64,3.69s8.29,5.4,10.66,9,3.56,7,3.69,10.27a2.39,2.39,0,0,1-.79,2.23,3.18,3.18,0,0,1-2.37.93H178.31a3.09,3.09,0,0,1-2.1-.66A5.89,5.89,0,0,1,174.89,47c-1.32-3.29-3-5.79-5.13-7.24a15,15,0,0,0-8.29-2.24c-4.48,0-7.9,1.45-10.4,4.22s-3.95,7.1-4.08,12.9l-.14,4.87.14,4.34C147.51,75.29,152.38,81,161.47,81a14.36,14.36,0,0,0,8.29-2.24c2.1-1.45,3.81-3.81,5.13-7.24a5.24,5.24,0,0,1,1.32-2.1,3,3,0,0,1,2.1-.66H190a3.17,3.17,0,0,1,2.37.92,2.42,2.42,0,0,1,.79,2.24c-.13,3-1.45,6.32-3.69,9.87A27.13,27.13,0,0,1,179,91c-4.74,2.51-10.66,3.82-17.77,3.82C151.59,94.77,143.83,92.14,138.17,86.74Z"/><path class="cls-1" d="M211.19,86.35c-5.79-5.66-8.82-13.56-9.21-24l-.14-3.29c0-10.92,2.9-19.61,8.69-25.93s13.69-9.48,23.83-9.48c10.39,0,18.56,3.16,24.22,9.48S267,47.91,267,58.44v2.77a2.85,2.85,0,0,1-.92,2.23,3.18,3.18,0,0,1-2.37.93H220v1a20,20,0,0,0,4.08,12.11,12.14,12.14,0,0,0,10.27,4.87,14.74,14.74,0,0,0,12.24-6.06,11.74,11.74,0,0,1,1.84-1.84,8,8,0,0,1,2.24-.26h11.58a4,4,0,0,1,2.11.66,2.21,2.21,0,0,1,.79,1.84c0,2.1-1.19,4.61-3.69,7.37a31.11,31.11,0,0,1-10.79,7.5,38.59,38.59,0,0,1-16.19,3.16C224.62,94.77,216.85,92,211.19,86.35Zm37.65-33.44c0-5.13-1.32-9.34-3.82-12.5a13.45,13.45,0,0,0-10.66-4.61,13,13,0,0,0-10.53,4.61c-2.5,3.16-3.82,7.37-3.82,12.5v.27h28.83Z"/><path class="cls-1" d="M105.47,13.12a18.5,18.5,0,0,0,13.12,5.44V0H100A18.5,18.5,0,0,0,105.47,13.12Z"/></g></g></svg>