<svg xmlns="http://www.w3.org/2000/svg" viewBox="0 0 266 52.13"><defs><style>.cls-1{fill:#da222c;}.cls-1,.cls-2,.cls-3{fill-rule:evenodd;}.cls-2{fill:#a8232c;}.cls-3{fill:#fefefe;}</style></defs><g id="Layer_2" data-name="Layer 2"><g id="Layer_1-2" data-name="Layer 1"><polygon class="cls-1" points="50.77 15.91 25.85 7.7 7.05 13.73 7.05 23.81 25.85 17.86 50.87 26.34 50.87 51.32 25.85 43.37 0.36 52.13 0.36 44.53 25.85 35.67 44.28 41.8 44.28 31.31 25.94 25.38 0 34 0 8.77 25.79 0 50.77 8.26 50.77 15.91"/><path class="cls-2" d="M25.85,7.7l-18.8,6V23.81l18.8-5.95v7.55L0,34V8.76L25.79,0l.06,0V7.7Zm0,35.67L.36,52.13v-7.6l25.49-8.86Z"/><path class="cls-3" d="M81.76,34.86A2.85,2.85,0,0,0,81.2,33a4.14,4.14,0,0,0-1.53-1.16,10.83,10.83,0,0,0-2.17-.74c-.8-.19-1.65-.37-2.53-.55a32.75,32.75,0,0,1-3.35-.92,9.48,9.48,0,0,1-2.81-1.46,6.94,6.94,0,0,1-1.93-2.38,8,8,0,0,1-.72-3.61A9.62,9.62,0,0,1,67,18a8.07,8.07,0,0,1,2.27-2.93,9.61,9.61,0,0,1,3.37-1.73A14.9,14.9,0,0,1,77,12.79a25,25,0,0,1,4.84.47A21.33,21.33,0,0,1,86,14.48v4.73a25.56,25.56,0,0,0-4.51-1.34,21.1,21.1,0,0,0-4-.42,7.49,7.49,0,0,0-4.2,1,3.36,3.36,0,0,0-1.48,3,3.46,3.46,0,0,0,.48,1.9,4,4,0,0,0,1.31,1.23,8.37,8.37,0,0,0,1.92.78c.71.19,1.48.37,2.28.54,1.28.27,2.5.58,3.65.94a10.51,10.51,0,0,1,3.09,1.47,6.72,6.72,0,0,1,2.13,2.47,8.36,8.36,0,0,1,.79,3.89,9.28,9.28,0,0,1-.9,4.22A8,8,0,0,1,84,41.8a11.73,11.73,0,0,1-4,1.73,22.72,22.72,0,0,1-5.18.56,23.65,23.65,0,0,1-4.84-.49,13.68,13.68,0,0,1-4-1.36V37.58A22.51,22.51,0,0,0,70.34,39a21.59,21.59,0,0,0,4.37.44,15.73,15.73,0,0,0,2.57-.22,7.59,7.59,0,0,0,2.26-.73,4.26,4.26,0,0,0,1.61-1.42,3.75,3.75,0,0,0,.61-2.2ZM106,43.53h-5.54V18H90.68V13.39h25V18H106V43.53Zm28.77-7.66,2.92,7.66h5.84l-12-30.14h-5.05l-12,30.14h5.89l2.92-7.66ZM129,20.64h.1c1.07,3.13,2,5.76,2.86,7.89l1,2.72h-7.86l1-2.73c.83-2.11,1.79-4.74,2.86-7.88Zm33.62,14.22A2.91,2.91,0,0,0,162,33a4.1,4.1,0,0,0-1.54-1.16,10.74,10.74,0,0,0-2.16-.74c-.81-.19-1.65-.37-2.53-.55a32.05,32.05,0,0,1-3.35-.92,9.36,9.36,0,0,1-2.81-1.46,6.83,6.83,0,0,1-1.93-2.38,7.9,7.9,0,0,1-.72-3.61,9.62,9.62,0,0,1,.83-4.16,8.29,8.29,0,0,1,2.27-2.93,9.7,9.7,0,0,1,3.37-1.73,15,15,0,0,1,4.34-.58,25,25,0,0,1,4.85.47,21.22,21.22,0,0,1,4.19,1.22v4.73a25.23,25.23,0,0,0-4.5-1.34,21.2,21.2,0,0,0-4.05-.42,7.54,7.54,0,0,0-4.2,1,3.37,3.37,0,0,0-1.47,3,3.46,3.46,0,0,0,.48,1.9,3.79,3.79,0,0,0,1.31,1.23,8.11,8.11,0,0,0,1.91.78c.72.19,1.48.37,2.29.54,1.28.27,2.49.58,3.64.94a10.45,10.45,0,0,1,3.1,1.47,6.81,6.81,0,0,1,2.13,2.47,8.49,8.49,0,0,1,.79,3.89,9.28,9.28,0,0,1-.91,4.22,8,8,0,0,1-2.56,2.94,11.76,11.76,0,0,1-4,1.73,22.81,22.81,0,0,1-5.19.56,23.73,23.73,0,0,1-4.84-.49,13.6,13.6,0,0,1-3.95-1.36V37.58A22.65,22.65,0,0,0,151.16,39a21.66,21.66,0,0,0,4.37.44,15.64,15.64,0,0,0,2.57-.22,7.5,7.5,0,0,0,2.26-.73A4.37,4.37,0,0,0,162,37.06a3.75,3.75,0,0,0,.61-2.2Zm17.36-9h13.94V13.39h5.54V43.53h-5.54V30.42H180V43.53h-5.54V13.39H180V25.81Zm30.61,17.72h-3.69V13.39h18v3.32H210.56v9.74h12.69v3.33H210.56V43.53Zm19.59,0V13.39h3.69V43.53ZM257,30.19q2.76,4,5.47,8.2h.14q-.3-4.38-.3-9v-16H266V43.53h-3.69l-11.82-16.8q-3.06-4.39-5.46-8.2h-.14q.29,4.11.29,9.62V43.53h-3.69V13.39h3.65Z"/></g></g></svg>