<svg xmlns="http://www.w3.org/2000/svg" viewBox="0 0 265 76.02"><defs><style>.cls-1{fill:#4a4a4a;}</style></defs><g id="Layer_2" data-name="Layer 2"><g id="Layer_1-2" data-name="Layer 1"><path class="cls-1" d="M59.7,24.8q-5.06,0-7.69,3a13.47,13.47,0,0,0-3,8.08H69.79c0-3.43-.8-6.14-2.4-8.11S63.22,24.81,59.7,24.8Zm0-7a21.31,21.31,0,0,1,8.23,1.46,15.4,15.4,0,0,1,5.77,4.13,17.15,17.15,0,0,1,3.4,6.35A28.46,28.46,0,0,1,78.2,38v4H48.69a15.34,15.34,0,0,0,2.85,9.13c1.79,2.33,4.5,3.5,8.15,3.49,2.84,0,5-.55,6.4-1.66a8,8,0,0,0,2.85-4.77h8.71a15.73,15.73,0,0,1-5.47,10q-4.35,3.53-12.49,3.53-9.81,0-14.92-5.68t-5.1-16a28.27,28.27,0,0,1,1.46-9.44,19.61,19.61,0,0,1,4.12-6.94,17.35,17.35,0,0,1,6.33-4.29,21.64,21.64,0,0,1,8.11-1.47Z"/><path class="cls-1" d="M91.59,8.09H82.26V60.58h9.33Z"/><path class="cls-1" d="M116.11,25.11q-5.73,0-8.4,3.93c-1.78,2.61-2.67,6.15-2.67,10.59s.86,8.06,2.59,10.71,4.55,4,8.48,4,6.63-1.31,8.41-3.93,2.68-6.2,2.68-10.75-.89-8-2.66-10.63S120,25.11,116.11,25.11Zm.08-7.3A22.31,22.31,0,0,1,125,19.43a17.94,17.94,0,0,1,6.42,4.49,18.76,18.76,0,0,1,3.91,6.86,28.2,28.2,0,0,1,1.31,8.77A27.17,27.17,0,0,1,135.09,49a19.28,19.28,0,0,1-4.27,6.91,17.79,17.79,0,0,1-6.49,4.24A22.94,22.94,0,0,1,116,61.61q-9.72,0-15.06-5.71T95.64,39.71a27.41,27.41,0,0,1,1.39-9,19.47,19.47,0,0,1,4-6.9,18,18,0,0,1,6.46-4.45,22.66,22.66,0,0,1,8.69-1.58Z"/><path class="cls-1" d="M159.17,61.61q8.31,0,12.79-4.17t5.27-11.54h-9.1a10.7,10.7,0,0,1-2.7,6.23q-2.13,2.17-6.26,2.18a9.54,9.54,0,0,1-4.83-1.15,8.88,8.88,0,0,1-3.17-3.1,14.37,14.37,0,0,1-1.74-4.64,28.91,28.91,0,0,1-.56-5.79,27.11,27.11,0,0,1,.52-5.32,14.66,14.66,0,0,1,1.7-4.63,9.72,9.72,0,0,1,3.17-3.3,9.06,9.06,0,0,1,5-1.26c2.81,0,4.8.76,6,2.3a13.15,13.15,0,0,1,2.41,5.79l9-1.35A23,23,0,0,0,175,26.54a14.14,14.14,0,0,0-3.09-4.48,14.35,14.35,0,0,0-5-3.1,20.85,20.85,0,0,0-7.37-1.15,21.41,21.41,0,0,0-8.48,1.59,17.5,17.5,0,0,0-6.3,4.49,19.65,19.65,0,0,0-3.92,7,28.81,28.81,0,0,0-1.35,9,31.43,31.43,0,0,0,1.19,8.93,18.57,18.57,0,0,0,3.64,6.86,16.33,16.33,0,0,0,6.14,4.41A22.36,22.36,0,0,0,159.17,61.61Z"/><path class="cls-1" d="M184.84,0l-8.21,4.74,4.54,7.86,8.21-4.74Z"/><path class="cls-1" d="M190.46,18.83h-9.32V60.58h9.32Z"/><path class="cls-1" d="M213.05,61.61a26.11,26.11,0,0,0,8.32-1.29L220,53.48a13.69,13.69,0,0,1-2.44.56,20.52,20.52,0,0,1-2.6.17,5,5,0,0,1-3.87-1.45,7.36,7.36,0,0,1-1.58-4.86V26.55H220V18.83H209.52V8.09h-8.87V18.83h-6.46v7.73h6.46V47.49c0,5.29,1,8.15,2.81,10.54S208.47,61.61,213.05,61.61Z"/><path class="cls-1" d="M230.84,76,265,18.83H254.74L238.06,48.28l-5.29-29.45h-10.1l9.06,39.41L221.77,76Z"/><path class="cls-1" d="M18.31,60.35l34-57.18H41.6L16.29,47.22l-6-39.39H0L8.88,60.35Z"/></g></g></svg>