<svg xmlns="http://www.w3.org/2000/svg" viewBox="0 0 116.1 50"><defs><style>.cls-1{fill:#fff;}.cls-2{fill:#fd9803;}</style></defs><g id="Layer_2" data-name="Layer 2"><g id="Layer_1-2" data-name="Layer 1"><g id="KyJrhz.tif"><path class="cls-1" d="M78.18,49.65c1.37-3.26,2.69-6.43,4-9.6q2.31-5.5,4.61-11c.76-1.84,1.51-2.36,3.51-2.37,1.29,0,2.58,0,3.87,0,.49,0,.6.19.68.59q.8,3.86,1.6,7.71,1.47,7,3,14.07c.13.64.13.64-.52.64-1.46,0-2.91,0-4.36,0-.39,0-.57-.08-.64-.51-.14-.87-.36-1.73-.53-2.61,0-.25-.16-.32-.4-.32q-3.48,0-7,0c-.32,0-.39.19-.47.41-.32.88-.64,1.77-1,2.66-.08.21-.15.38-.44.37ZM90.57,33c-.06.08-.11.12-.13.16-1,2.65-1.93,5.3-2.91,7.94-.12.31,0,.36.27.36,1.34,0,2.68,0,4,0,.44,0,.49-.11.41-.52C91.66,38.34,91.13,35.7,90.57,33Z"/><path class="cls-1" d="M68.16,50a20.31,20.31,0,0,1-6-1c-.43-.14-.59-.34-.5-.82.26-1.35.49-2.7.68-4.06.06-.43.14-.52.55-.31a12.33,12.33,0,0,0,5.93,1.36A5.76,5.76,0,0,0,71,44.75a1.85,1.85,0,0,0,.46-3.38A28.68,28.68,0,0,0,68,39.42a9.07,9.07,0,0,1-2.92-2.48A5.62,5.62,0,0,1,65,30.58a8.38,8.38,0,0,1,5.81-3.95A15.18,15.18,0,0,1,79,27c.34.11.5.24.43.64-.24,1.39-.46,2.79-.67,4.19,0,.33-.16.33-.42.2a10.09,10.09,0,0,0-5.24-.94,3.51,3.51,0,0,0-2.22.78,1.38,1.38,0,0,0-.09,2.22,8.85,8.85,0,0,0,2.51,1.6,19.74,19.74,0,0,1,3,1.83c2.85,2.23,2.83,5.63,1.31,8.26A8,8,0,0,1,73,49.29,15,15,0,0,1,68.16,50Z"/><path class="cls-1" d="M40.39,38.84c.34,1.06.41,2.18.75,3.39.29-.77.55-1.42.79-2.07,1.61-4.34,3.23-8.68,4.83-13a.61.61,0,0,1,.69-.48c1.76,0,3.53,0,5.29,0,.38,0,.51,0,.33.47q-4.5,11-9,22a.74.74,0,0,1-.82.55c-1.77,0-3.53,0-5.29,0-.32,0-.47-.07-.56-.41Q34.93,39.6,32.36,30a2.48,2.48,0,0,1,0-.27c.15-.06.24.05.34.12A20,20,0,0,1,36,32.37,19,19,0,0,1,40.39,38.84Z"/><path class="cls-1" d="M7.22,15.92c.4-.8.81-1.6,1.22-2.4,2-4.06,4.08-8.12,6.1-12.19a.68.68,0,0,1,.74-.45c1,0,2,0,3,0,.34,0,.47,0,.27.4Q14.06,9.86,9.54,18.43c-.41.77-.83,1.53-1.22,2.31a.59.59,0,0,1-.63.37c-1,0-2,0-2.94,0-.36,0-.46-.13-.53-.45-1-4.41-2-8.83-2.94-13.24C.87,5.57.47,3.72,0,1.87c-.09-.39,0-.5.37-.56C1.51,1.15,2.62,1,3.72.75c.34-.07.44,0,.51.34q1,5.36,2.06,10.71c.25,1.29.52,2.59.77,3.88C7.08,15.76,7.07,15.87,7.22,15.92Z"/><path class="cls-1" d="M84.17,19.11a10.29,10.29,0,0,1-1.93,1.47,5,5,0,0,1-5.09.1,4,4,0,0,1-2-3.35,10.85,10.85,0,0,1,2.1-7.94,7.05,7.05,0,0,1,8-2.25c.45.14.56.1.62-.37.27-2,.6-3.9.88-5.85a.47.47,0,0,1,.48-.47C88.14.32,89.05.17,90,0c.36-.06.46,0,.4.41q-1.45,9.24-2.87,18.51c-.09.57-.17,1.14-.25,1.72,0,.25-.13.37-.41.36H84.54c-.29,0-.38-.1-.37-.38C84.18,20.18,84.17,19.71,84.17,19.11ZM82.82,9.58a3.39,3.39,0,0,0-3.07,1.82,7.5,7.5,0,0,0-1,4.6,2.16,2.16,0,0,0,2.93,2.07,5.89,5.89,0,0,0,2.65-1.74.45.45,0,0,0,.09-.3c.29-1.82.57-3.64.86-5.47A.41.41,0,0,0,85,10,6.46,6.46,0,0,0,82.82,9.58Z"/><path class="cls-1" d="M54.9,49.64H52.34c-.29,0-.41,0-.35-.38q1.47-9,2.91-18c.23-1.39.45-2.79.67-4.18,0-.3.13-.43.47-.43,1.73,0,3.45,0,5.18,0,.36,0,.39.1.34.43q-1.77,10.7-3.49,21.38c-.2,1.19-.2,1.19-1.38,1.19Z"/><path class="cls-1" d="M73,16.84c0,.91,0,1.7,0,2.5a.46.46,0,0,1-.28.42,10.43,10.43,0,0,1-7.59,1.32,4.7,4.7,0,0,1-3.88-4.45,9.46,9.46,0,0,1,3-8.26,6.8,6.8,0,0,1,6.14-1.58c2.11.43,3.4,2.07,3.62,4.53a11.92,11.92,0,0,1-.17,2.92c-.06.36-.22.45-.58.45-2.68,0-5.37,0-8.06,0-.4,0-.52.1-.53.5-.07,2.26,1.11,3.46,3.37,3.42a9.08,9.08,0,0,0,4.26-1.34C72.56,17.14,72.75,17,73,16.84Zm-2.32-5.11a3.78,3.78,0,0,0-.1-.91,2.07,2.07,0,0,0-2.47-1.74,2.8,2.8,0,0,0-1.46.67A5.46,5.46,0,0,0,65.27,12c-.15.4,0,.47.36.47,1.47,0,2.94,0,4.41,0C70.74,12.48,70.74,12.48,70.72,11.73Z"/><path class="cls-1" d="M27.1,16.85c0,.89,0,1.69,0,2.48a.45.45,0,0,1-.28.42,10.42,10.42,0,0,1-7.7,1.31,4.64,4.64,0,0,1-3.76-4.27,9.64,9.64,0,0,1,2.4-7.86A6.89,6.89,0,0,1,24.5,6.79a4.51,4.51,0,0,1,3.57,4,10.77,10.77,0,0,1-.11,3.4c-.06.35-.21.46-.57.46-2.69,0-5.38,0-8.07,0-.45,0-.53.15-.53.54,0,2.13,1,3.27,2.92,3.38a6.37,6.37,0,0,0,1.68-.14,10.69,10.69,0,0,0,3.16-1.27ZM22,12.48h1.68c1.24,0,1.25,0,1.05-1.27a2.2,2.2,0,0,0-1.3-2,2.58,2.58,0,0,0-2.69.5,5.08,5.08,0,0,0-1.48,2.42c-.1.31.05.33.29.33Z"/><path class="cls-1" d="M53.07,9.8c-.4,0-1-.2-1.34.08s-.23.92-.31,1.39c-.49,3.09-1,6.19-1.43,9.28-.05.35-.17.49-.55.48-.83,0-1.67,0-2.5,0-.39,0-.53,0-.46-.5.55-3.4,1.06-6.79,1.6-10.19.07-.42,0-.61-.46-.55a4.68,4.68,0,0,1-.65,0c-.87,0-.87,0-.73-.88.08-.55.19-1.11.25-1.66,0-.29.16-.36.42-.35s.8,0,1.2,0,.53-.16.57-.51c.08-.61.21-1.21.28-1.82C49.32,1.89,51,.43,53.89.24A8.72,8.72,0,0,1,55.58.3c.29,0,.35.15.35.41,0,.7,0,1.41,0,2.12,0,.3-.1.37-.38.33a5.57,5.57,0,0,0-1.58,0,1.69,1.69,0,0,0-1.52,1.41c-.14.67-.21,1.36-.34,2-.06.29,0,.35.3.34.62,0,1.24,0,1.85,0,.4,0,.5.13.49.5a17.2,17.2,0,0,0,0,1.9c0,.44-.15.54-.54.5S53.52,9.8,53.07,9.8Z"/><path class="cls-1" d="M97.69,11.5a6,6,0,0,1,2-1.19,3.19,3.19,0,0,1,4.41,2.63,7.89,7.89,0,0,1-1.41,6,5.42,5.42,0,0,1-4.14,2.2A11.8,11.8,0,0,1,94,20.57c-.29-.09-.39-.21-.34-.53q.91-5.82,1.81-11.65c.13-.84.26-1.68.37-2.52,0-.28.13-.41.43-.44.61-.07,1.22-.18,1.82-.29.4-.08.55,0,.47.44C98.3,7.37,98,9.16,97.76,11,97.74,11.09,97.73,11.23,97.69,11.5ZM98.07,19a2.7,2.7,0,0,0,2.6-1.28,5.5,5.5,0,0,0,.74-3.86,1.51,1.51,0,0,0-1.85-1.31,3.9,3.9,0,0,0-1.89,1,1.16,1.16,0,0,0-.43.79c-.14,1-.32,2.11-.49,3.16C96.53,18.84,96.63,19,98.07,19Z"/><path class="cls-1" d="M34.17,9.7a11.22,11.22,0,0,1,1.45-1.57,6,6,0,0,1,3.1-1.46c.35,0,.48,0,.47.4q0,1.33,0,2.67c0,.31-.1.38-.4.42a7.85,7.85,0,0,0-4.59,2.27,1.93,1.93,0,0,0-.56,1.13c-.35,2.36-.72,4.72-1.07,7.08,0,.31-.17.39-.45.38H29.39c-.31,0-.4-.08-.35-.4q.83-5.17,1.63-10.35c.13-.87.26-1.75.38-2.63.11-.73.1-.73.86-.73.6,0,1.2,0,1.8,0,.34,0,.48.08.47.46C34.15,8.09,34.17,8.82,34.17,9.7Z"/><path class="cls-1" d="M110.07,17.56c.24-.48.48-1,.71-1.44.85-1.78,1.7-3.56,2.52-5.35a.62.62,0,0,1,.7-.43c.69,0,1.38,0,2.06,0,.1.16,0,.25-.08.35-1.87,3.64-3.73,7.28-5.61,10.91a6.44,6.44,0,0,1-2.51,2.93A5.09,5.09,0,0,1,105,25c-.25,0-.34-.14-.33-.39a14.42,14.42,0,0,0,0-1.47c0-.36.1-.41.43-.35a2.28,2.28,0,0,0,2.42-.7,1.88,1.88,0,0,0,.46-1.74c-.7-3.11-1.33-6.23-2-9.33-.1-.44,0-.52.41-.56.65-.06,1.3-.14,1.94-.24.29,0,.4,0,.45.35.39,2.31.8,4.63,1.21,6.94Z"/><path class="cls-1" d="M56.3,21c-.42,0-.84,0-1.25,0s-.52-.14-.46-.54c.28-1.68.53-3.36.79-5,.42-2.7.85-5.4,1.25-8.1,0-.36.18-.45.51-.45.89,0,1.78,0,2.67,0,.27,0,.42,0,.36.37q-1,6.57-2,13.15c-.06.45-.22.66-.71.6A8.67,8.67,0,0,0,56.3,21Z"/><path class="cls-1" d="M40.88,21c-.46,0-.91,0-1.36,0s-.4-.1-.35-.41c.44-2.75.85-5.51,1.28-8.26.25-1.61.51-3.21.74-4.82.06-.46.18-.66.69-.63.82,0,1.63,0,2.45,0,.35,0,.48.08.42.46-.61,3.87-1.2,7.75-1.81,11.63-.07.5-.19,1-.22,1.5s-.23.57-.65.54A11.78,11.78,0,0,0,40.88,21Z"/><path class="cls-2" d="M40.39,38.84A19,19,0,0,0,36,32.37a20,20,0,0,0-3.32-2.54c-.1-.07-.19-.18-.34-.12h0c.06-.08,0-.08-.06-.11a21.9,21.9,0,0,0-5.64-2.39l-.42-.12a.21.21,0,0,1-.15-.25.22.22,0,0,1,.23-.19h9.26a3.55,3.55,0,0,1,1.69.35,2.21,2.21,0,0,1,1.17,1.61q1,4.88,1.94,9.74A4,4,0,0,1,40.39,38.84Z"/><path class="cls-1" d="M43.41,4.57a1.69,1.69,0,0,1-1.8-1.69A2.47,2.47,0,0,1,44.07.54a1.68,1.68,0,0,1,1.78,1.77A2.37,2.37,0,0,1,43.41,4.57Z"/><path class="cls-1" d="M58.84,4.57a1.61,1.61,0,0,1-1.78-1.68A2.38,2.38,0,0,1,59.47.55a1.69,1.69,0,0,1,1.8,1.7A2.38,2.38,0,0,1,58.84,4.57Z"/><path class="cls-1" d="M32.28,29.61s.12,0,.06.11Z"/></g></g></g></svg>