<svg xmlns="http://www.w3.org/2000/svg" xmlns:xlink="http://www.w3.org/1999/xlink" viewBox="0 0 65.05 53.05"><defs><style>.cls-1{fill:#fff;}.cls-2{clip-path:url(#clip-path);}</style><clipPath id="clip-path" transform="translate(5.78 17.89)"><path class="cls-1" d="M15.77.31l-4.5,11.37L9.45,2a2,2,0,0,0-2-1.7H.1L0,.79A18.16,18.16,0,0,1,4.26,2.21a1.84,1.84,0,0,1,1,1.47L8.74,17h4.57l7-16.71Zm6.4,0L18.59,17h4.32L26.49.31ZM47,4.82l1.31,6.28H44.67ZM46.32.31a2,2,0,0,0-1.84,1.22L38,17h4.54l.9-2.5H49L49.5,17h4L50,.31ZM27.66,5.52c0,2.41,2.15,3.75,3.79,4.55s2.25,1.34,2.24,2.08c0,1.12-1.34,1.61-2.59,1.64a9.12,9.12,0,0,1-4.43-1.06l-.79,3.66a13.2,13.2,0,0,0,4.81.89c4.54,0,7.51-2.25,7.52-5.72,0-4.41-6.09-4.65-6.05-6.63,0-.59.58-1.23,1.83-1.39a8.13,8.13,0,0,1,4.26.74L39,.74A11.52,11.52,0,0,0,35,0c-4.27,0-7.28,2.27-7.31,5.52"/></clipPath></defs><g id="Layer_2" data-name="Layer 2"><g id="Layer_1-2" data-name="Layer 1"><path class="cls-1" d="M15.77.31l-4.5,11.37L9.45,2a2,2,0,0,0-2-1.7H.1L0,.79A18.16,18.16,0,0,1,4.26,2.21a1.84,1.84,0,0,1,1,1.47L8.74,17h4.57l7-16.71Zm6.4,0L18.59,17h4.32L26.49.31ZM47,4.82l1.31,6.28H44.67ZM46.32.31a2,2,0,0,0-1.84,1.22L38,17h4.54l.9-2.5H49L49.5,17h4L50,.31ZM27.66,5.52c0,2.41,2.15,3.75,3.79,4.55s2.25,1.34,2.24,2.08c0,1.12-1.34,1.61-2.59,1.64a9.12,9.12,0,0,1-4.43-1.06l-.79,3.66a13.2,13.2,0,0,0,4.81.89c4.54,0,7.51-2.25,7.52-5.72,0-4.41-6.09-4.65-6.05-6.63,0-.59.58-1.23,1.83-1.39a8.13,8.13,0,0,1,4.26.74L39,.74A11.52,11.52,0,0,0,35,0c-4.27,0-7.28,2.27-7.31,5.52" transform="translate(5.78 17.89)"/><g class="cls-2"><rect class="cls-1" x="-1.32" y="-9" width="56.13" height="35.29" transform="translate(4.46 28.04) rotate(-20.98)"/></g></g></g></svg>